<?xml version="1.0" encoding="UTF-8"?><svg id="Calque_2" xmlns="http://www.w3.org/2000/svg" viewBox="0 0 168.11 70.07"><defs><style>.cls-1{fill:#fff;}</style></defs><g id="Logos"><path class="cls-1" d="M26,24.53v1.41H6.15v.27c.16,4.84,3.05,7.94,7.13,7.94h.27c3.59,0,5.77-2.34,6.53-5.22h6.2c-1.25,5.93-5.93,10.01-13.11,9.95-8.27-.05-13.16-5.71-13.16-14.2s5.28-14.31,13.11-14.31,12.89,5.39,12.89,14.14ZM19.8,21.7c-.38-3.7-2.72-6.74-6.64-6.74h-.38c-3.86,0-6.09,3.16-6.47,6.74h13.49Z"/><path class="cls-1" d="M30.52,3.59c0-2.01,1.69-3.59,3.75-3.59s3.59,1.58,3.59,3.59-1.58,3.64-3.59,3.64-3.75-1.63-3.75-3.64ZM31.17,11.04h6.09v27.2h-6.09V11.04Z"/><path class="cls-1" d="M61.85,38.24l-8.7-13.27-3.21,3.05v10.23h-6.09V.43h6.09v20.62l10.44-10.01h7.4l-10.55,9.95.98,1.31,10.82,15.94h-7.18Z"/><path class="cls-1" d="M95.31,24.53c0,8.7-5.55,14.36-13.6,14.36s-13.54-5.66-13.54-14.36,5.44-14.14,13.54-14.14,13.6,5.44,13.6,14.14ZM81.92,34.1c4.9,0,7.02-4.35,7.02-9.57s-2.18-9.36-7.02-9.36h-.49c-4.79,0-6.96,4.41-6.96,9.36s2.12,9.57,6.96,9.57h.49Z"/><path class="cls-1" d="M99.66,11.04h6.2v.6c0,1.36-.22,1.96-.76,3.37l.82.22c1.2-2.72,4.35-4.84,8.92-4.84s9.36,2.01,9.36,9.25v18.6h-6.09v-17.57c0-3.81-2.45-5.28-5.77-5.28h-.16c-3.43,0-6.42,2.12-6.42,5.93v16.92h-6.09V11.04Z"/><path class="cls-1" d="M31.26,47.32h4.09c1.75,0,2.84.88,2.84,2.23,0,1.22-.84,1.9-1.79,2.02v.18c1.14.05,2.21.76,2.21,2.17s-.96,2.43-3.05,2.43h-4.29v-9.03ZM35.13,51.17c.85,0,1.47-.47,1.47-1.32s-.61-1.29-1.47-1.29h-2.33v2.61h2.33ZM35.39,55.1c.99,0,1.6-.52,1.6-1.39s-.57-1.4-1.6-1.4h-2.59v2.78h2.59Z"/><path class="cls-1" d="M41.79,55.07h4.81v1.28h-6.34v-9.03h6.27v1.27h-4.74v2.54h4.32v1.24h-4.32v2.7Z"/><path class="cls-1" d="M48.28,47.32h3.96c1.78,0,3.15.79,3.15,2.48,0,1.21-.85,2.09-1.89,2.16v.19c1.22.04,1.63.67,1.63,1.89,0,1.03.19,1.72.54,2.25v.05h-1.68c-.22-.48-.35-1.07-.35-1.98,0-1.22-.47-1.63-1.56-1.63h-2.28v3.61h-1.52v-9.03ZM52.16,51.52c1.02,0,1.63-.46,1.63-1.51s-.61-1.45-1.63-1.45h-2.36v2.96h2.36Z"/><path class="cls-1" d="M57.23,52.75v-5.43h1.55v5.47c0,1.57.79,2.44,2.05,2.44h.14c1.26,0,2.02-.88,2.02-2.44v-5.47h1.53v5.43c0,2.31-1.26,3.76-3.64,3.76s-3.65-1.45-3.65-3.76Z"/><path class="cls-1" d="M72.88,48.59h-4.68v2.54h4.22v1.25h-4.22v3.96h-1.53v-9.03h6.22v1.27Z"/><path class="cls-1" d="M75.3,53.07c.01,1.52,1.05,2.18,2.21,2.18.95,0,1.98-.51,1.98-1.36,0-1.03-.94-1.22-1.68-1.38l-1.23-.28c-1.6-.34-2.61-1.17-2.61-2.47,0-1.78,1.53-2.61,3.42-2.61,2.16,0,3.57,1.25,3.72,3.01h-1.64c-.08-1.02-.94-1.78-2.09-1.78-.92,0-1.81.41-1.81,1.24,0,.73.66,1.13,1.56,1.3l1.36.3c1.66.34,2.62,1.14,2.62,2.59,0,1.68-1.7,2.7-3.61,2.69-1.98-.01-3.79-.95-3.83-3.43h1.63Z"/><path class="cls-1" d="M89,48.59h-4.68v2.54h4.22v1.25h-4.22v3.96h-1.53v-9.03h6.22v1.27Z"/><path class="cls-1" d="M96.02,56.34l-.92-2.39h-3.65l-.87,2.39h-1.59l3.27-9.03h1.87l3.5,9.03h-1.62ZM91.81,52.77h2.91l-1.06-2.78c-.16-.43-.27-.79-.35-1.22h-.2c-.05.43-.16.79-.31,1.22l-.98,2.78Z"/><path class="cls-1" d="M106.16,53.28c-.15,1.6-1.34,3.23-3.88,3.23s-4.15-1.75-4.15-4.65,1.6-4.7,4.17-4.7c2.28,0,3.62,1.34,3.91,3.31h-1.56c-.24-1.25-1.04-2.04-2.29-2.04h-.14c-1.59,0-2.5,1.32-2.5,3.41s.91,3.41,2.5,3.41h.12c1.38,0,2.15-.99,2.27-1.97h1.56Z"/><path class="cls-1" d="M113.7,47.32h1.55v9.03h-1.55v-3.91h-4.3v3.91h-1.53v-9.03h1.53v3.83h4.3v-3.83Z"/><path class="cls-1" d="M118.48,53.07c.01,1.52,1.05,2.18,2.21,2.18.95,0,1.98-.51,1.98-1.36,0-1.03-.94-1.22-1.68-1.38l-1.24-.28c-1.6-.34-2.61-1.17-2.61-2.47,0-1.78,1.53-2.61,3.42-2.61,2.16,0,3.57,1.25,3.72,3.01h-1.64c-.08-1.02-.94-1.78-2.09-1.78-.92,0-1.81.41-1.81,1.24,0,.73.67,1.13,1.56,1.3l1.36.3c1.66.34,2.62,1.14,2.62,2.59,0,1.68-1.7,2.7-3.61,2.69-1.98-.01-3.79-.95-3.83-3.43h1.63Z"/><path class="cls-1" d="M133.49,53.28c-.15,1.6-1.34,3.23-3.88,3.23s-4.15-1.75-4.15-4.65,1.6-4.7,4.17-4.7c2.28,0,3.62,1.34,3.91,3.31h-1.56c-.24-1.25-1.05-2.04-2.29-2.04h-.14c-1.59,0-2.5,1.32-2.5,3.41s.91,3.41,2.5,3.41h.12c1.38,0,2.15-.99,2.27-1.97h1.56Z"/><path class="cls-1" d="M141.03,47.32h1.55v9.03h-1.55v-3.91h-4.3v3.91h-1.53v-9.03h1.53v3.83h4.3v-3.83Z"/><path class="cls-1" d="M144.71,52.75v-5.43h1.55v5.47c0,1.57.79,2.44,2.05,2.44h.14c1.26,0,2.02-.88,2.02-2.44v-5.47h1.53v5.43c0,2.31-1.26,3.76-3.64,3.76s-3.65-1.45-3.65-3.76Z"/><path class="cls-1" d="M155.68,55.08h4.76v1.28h-6.3v-9.03h1.53v7.75Z"/><path class="cls-1" d="M163.31,55.07h4.81v1.28h-6.34v-9.03h6.27v1.27h-4.74v2.54h4.32v1.24h-4.32v2.7Z"/><path class="cls-1" d="M37.48,62.16h-4.68v2.54h4.22v1.25h-4.22v3.96h-1.53v-9.03h6.22v1.28Z"/><path class="cls-1" d="M38.81,66.31v-5.43h1.55v5.47c0,1.57.79,2.44,2.05,2.44h.14c1.26,0,2.02-.88,2.02-2.44v-5.47h1.53v5.43c0,2.31-1.26,3.76-3.64,3.76s-3.65-1.45-3.65-3.76ZM40.43,59.47c0-.48.39-.86.85-.86s.85.38.85.86-.38.85-.85.85-.85-.39-.85-.85ZM42.91,59.47c0-.48.39-.86.86-.86s.85.38.85.86-.38.85-.85.85-.86-.39-.86-.85Z"/><path class="cls-1" d="M48.25,60.88h3.96c1.78,0,3.15.79,3.15,2.48,0,1.21-.85,2.09-1.89,2.16v.19c1.22.04,1.63.67,1.63,1.89,0,1.03.19,1.72.54,2.25v.05h-1.68c-.22-.47-.35-1.07-.35-1.98,0-1.22-.48-1.63-1.56-1.63h-2.28v3.61h-1.52v-9.03ZM52.13,65.09c1.02,0,1.63-.46,1.63-1.51s-.61-1.45-1.63-1.45h-2.36v2.96h2.36Z"/><path class="cls-1" d="M68.81,64.89v5.02h-1.38c0-.67.08-1.28.2-1.72l-.19-.04c-.15.57-.98,1.93-2.92,1.93-2.25,0-3.88-1.81-3.88-4.67s1.74-4.68,4.32-4.68c2.29,0,3.62,1.53,3.84,3.2h-1.52c-.2-1.06-1.03-1.93-2.32-1.93h-.14c-1.56,0-2.62,1.34-2.62,3.38,0,2.27,1.18,3.43,2.7,3.43h.05c1.36,0,2.42-1.18,2.42-2.44v-.27h-3.12v-1.21h4.56Z"/><path class="cls-1" d="M72.27,68.63h4.8v1.28h-6.34v-9.03h6.27v1.28h-4.74v2.54h4.32v1.23h-4.32v2.7Z"/><path class="cls-1" d="M79.69,66.64c.01,1.52,1.05,2.18,2.21,2.18.95,0,1.98-.51,1.98-1.36,0-1.03-.94-1.22-1.68-1.38l-1.23-.28c-1.6-.34-2.61-1.17-2.61-2.47,0-1.78,1.53-2.61,3.42-2.61,2.16,0,3.57,1.25,3.72,3.01h-1.64c-.08-1.02-.94-1.78-2.09-1.78-.92,0-1.81.41-1.81,1.24,0,.73.66,1.13,1.56,1.3l1.36.3c1.66.34,2.62,1.14,2.62,2.59,0,1.68-1.7,2.7-3.61,2.69-1.98-.01-3.79-.95-3.83-3.43h1.63Z"/><path class="cls-1" d="M93.65,60.88v1.28h-2.93v7.75h-1.53v-7.75h-2.96v-1.28h7.43Z"/><path class="cls-1" d="M100.14,69.91l-.92-2.39h-3.65l-.87,2.39h-1.59l3.27-9.03h1.87l3.5,9.03h-1.62ZM95.93,66.34h2.9l-1.06-2.78c-.16-.43-.27-.79-.35-1.22h-.2c-.05.44-.16.79-.31,1.22l-.98,2.78Z"/><path class="cls-1" d="M104.58,68.65h4.76v1.28h-6.3v-9.03h1.53v7.75Z"/><path class="cls-1" d="M116.16,60.88v1.28h-2.93v7.75h-1.53v-7.75h-2.96v-1.28h7.43Z"/><path class="cls-1" d="M117.41,66.31v-5.43h1.55v5.47c0,1.57.79,2.44,2.05,2.44h.14c1.26,0,2.02-.88,2.02-2.44v-5.47h1.53v5.43c0,2.31-1.26,3.76-3.64,3.76s-3.65-1.45-3.65-3.76Z"/><path class="cls-1" d="M126.85,60.88h1.6l3.28,4.98c.52.77.76,1.21,1.1,2.05l.19-.04c-.1-.49-.16-1.1-.16-1.59v-5.4s1.49,0,1.49,0v9.03h-1.56l-3.49-5.31c-.49-.75-.71-1.21-.95-1.83l-.18.04c.08.45.18,1.13.18,1.8v5.29h-1.51v-9.03Z"/><path class="cls-1" d="M144.25,64.89v5.02h-1.38c0-.67.08-1.28.2-1.72l-.19-.04c-.15.57-.98,1.93-2.92,1.93-2.25,0-3.88-1.81-3.88-4.67s1.74-4.68,4.32-4.68c2.29,0,3.62,1.53,3.84,3.2h-1.52c-.2-1.06-1.03-1.93-2.32-1.93h-.14c-1.56,0-2.62,1.34-2.62,3.38,0,2.27,1.18,3.43,2.7,3.43h.05c1.36,0,2.42-1.18,2.42-2.44v-.27h-3.12v-1.21h4.56Z"/></g></svg>