<?xml version="1.0" encoding="UTF-8"?><svg id="Calque_2" xmlns="http://www.w3.org/2000/svg" viewBox="0 0 199.87 70.71"><defs><style>.cls-1{fill:#fff;}</style></defs><g id="Logos"><path class="cls-1" d="M26,24.53v1.41H6.15v.27c.16,4.84,3.05,7.94,7.13,7.94h.27c3.59,0,5.77-2.34,6.53-5.22h6.2c-1.25,5.93-5.93,10.01-13.11,9.95-8.27-.05-13.16-5.71-13.16-14.2s5.28-14.31,13.11-14.31,12.89,5.38,12.89,14.14ZM19.8,21.7c-.38-3.7-2.72-6.75-6.64-6.75h-.38c-3.86,0-6.09,3.16-6.47,6.75h13.49Z"/><path class="cls-1" d="M30.52,3.59c0-2.01,1.69-3.59,3.75-3.59s3.59,1.58,3.59,3.59-1.58,3.64-3.59,3.64-3.75-1.63-3.75-3.64ZM31.17,11.04h6.09v27.2h-6.09V11.04Z"/><path class="cls-1" d="M61.85,38.24l-8.7-13.27-3.21,3.05v10.23h-6.09V.43h6.09v20.61l10.44-10.01h7.4l-10.55,9.95.98,1.3,10.82,15.94h-7.18Z"/><path class="cls-1" d="M95.31,24.53c0,8.7-5.55,14.36-13.6,14.36s-13.54-5.66-13.54-14.36,5.44-14.14,13.54-14.14,13.6,5.44,13.6,14.14ZM81.92,34.1c4.9,0,7.02-4.35,7.02-9.57s-2.18-9.36-7.02-9.36h-.49c-4.79,0-6.96,4.41-6.96,9.36s2.12,9.57,6.96,9.57h.49Z"/><path class="cls-1" d="M99.66,11.04h6.2v.6c0,1.36-.22,1.96-.76,3.37l.82.22c1.2-2.72,4.35-4.84,8.92-4.84s9.36,2.01,9.36,9.25v18.6h-6.09v-17.57c0-3.81-2.45-5.28-5.77-5.28h-.16c-3.43,0-6.42,2.12-6.42,5.93v16.92h-6.09V11.04Z"/><path class="cls-1" d="M32.8,55.07h4.81v1.28h-6.34v-9.03h6.27v1.27h-4.74v2.54h4.32v1.24h-4.32v2.7ZM36.2,45.29l-1.1,1.41h-1.38l.8-1.41h1.68Z"/><path class="cls-1" d="M46.71,53.28c-.15,1.6-1.34,3.23-3.88,3.23s-4.15-1.75-4.15-4.65,1.6-4.7,4.17-4.7c2.28,0,3.62,1.34,3.91,3.31h-1.56c-.24-1.25-1.05-2.04-2.29-2.04h-.14c-1.59,0-2.5,1.32-2.5,3.41s.91,3.41,2.5,3.41h.12c1.38,0,2.14-.99,2.27-1.97h1.56Z"/><path class="cls-1" d="M56.52,51.82c0,2.8-1.57,4.7-4.28,4.7s-4.26-1.9-4.26-4.68,1.59-4.68,4.26-4.68,4.28,1.89,4.28,4.67ZM52.31,55.24c1.67,0,2.61-1.34,2.61-3.41s-.94-3.41-2.59-3.41h-.12c-1.66,0-2.62,1.34-2.62,3.41s.95,3.41,2.61,3.41h.12Z"/><path class="cls-1" d="M59.79,55.08h4.76v1.28h-6.3v-9.03h1.53v7.75Z"/><path class="cls-1" d="M67.41,55.07h4.81v1.28h-6.34v-9.03h6.27v1.27h-4.74v2.54h4.32v1.24h-4.32v2.7Z"/><path class="cls-1" d="M77.68,47.32h3.73c1.96,0,3.2.88,3.2,2.74s-1.37,2.8-3.22,2.8h-2.19v3.49h-1.53v-9.03ZM81.45,51.62c1.02,0,1.56-.5,1.56-1.53s-.54-1.51-1.56-1.51h-2.24v3.04h2.24Z"/><path class="cls-1" d="M86.02,47.32h3.96c1.78,0,3.15.79,3.15,2.48,0,1.21-.85,2.09-1.89,2.16v.19c1.22.04,1.63.67,1.63,1.89,0,1.03.19,1.72.54,2.25v.05h-1.68c-.22-.48-.35-1.07-.35-1.98,0-1.22-.47-1.63-1.56-1.63h-2.28v3.61h-1.52v-9.03ZM89.91,51.52c1.02,0,1.63-.46,1.63-1.51s-.61-1.45-1.63-1.45h-2.36v2.96h2.36Z"/><path class="cls-1" d="M103.11,51.82c0,2.8-1.57,4.7-4.28,4.7s-4.26-1.9-4.26-4.68,1.59-4.68,4.26-4.68,4.28,1.89,4.28,4.67ZM98.9,55.24c1.67,0,2.61-1.34,2.61-3.41s-.94-3.41-2.59-3.41h-.12c-1.66,0-2.62,1.34-2.62,3.41s.95,3.41,2.61,3.41h.12Z"/><path class="cls-1" d="M111.06,48.59h-4.68v2.54h4.22v1.25h-4.22v3.96h-1.53v-9.03h6.22v1.27Z"/><path class="cls-1" d="M113.94,55.07h4.81v1.28h-6.34v-9.03h6.27v1.27h-4.74v2.54h4.32v1.24h-4.32v2.7Z"/><path class="cls-1" d="M121.36,53.07c.01,1.52,1.05,2.18,2.21,2.18.95,0,1.98-.52,1.98-1.36,0-1.03-.94-1.22-1.68-1.38l-1.24-.28c-1.6-.34-2.61-1.17-2.61-2.47,0-1.78,1.53-2.61,3.42-2.61,2.16,0,3.57,1.25,3.72,3.01h-1.64c-.08-1.02-.94-1.78-2.09-1.78-.92,0-1.81.41-1.81,1.24,0,.73.67,1.13,1.56,1.3l1.36.3c1.66.34,2.62,1.14,2.62,2.59,0,1.68-1.7,2.7-3.61,2.69-1.98-.01-3.79-.95-3.83-3.43h1.63Z"/><path class="cls-1" d="M129.89,53.07c.01,1.52,1.05,2.18,2.21,2.18.95,0,1.98-.52,1.98-1.36,0-1.03-.94-1.22-1.68-1.38l-1.24-.28c-1.6-.34-2.61-1.17-2.61-2.47,0-1.78,1.53-2.61,3.42-2.61,2.16,0,3.57,1.25,3.72,3.01h-1.64c-.08-1.02-.94-1.78-2.09-1.78-.92,0-1.81.41-1.81,1.24,0,.73.67,1.13,1.56,1.3l1.36.3c1.66.34,2.62,1.14,2.62,2.59,0,1.68-1.7,2.7-3.61,2.69-1.98-.01-3.79-.95-3.83-3.43h1.63Z"/><path class="cls-1" d="M137.37,56.34v-9.03h1.53v9.03h-1.53Z"/><path class="cls-1" d="M149.17,51.82c0,2.8-1.57,4.7-4.28,4.7s-4.26-1.9-4.26-4.68,1.59-4.68,4.26-4.68,4.28,1.89,4.28,4.67ZM144.96,55.24c1.67,0,2.61-1.34,2.61-3.41s-.94-3.41-2.59-3.41h-.12c-1.66,0-2.62,1.34-2.62,3.41s.95,3.41,2.61,3.41h.12Z"/><path class="cls-1" d="M150.9,47.32h1.6l3.29,4.98c.52.77.76,1.21,1.1,2.05l.19-.04c-.09-.49-.16-1.1-.16-1.59v-5.4s1.49,0,1.49,0v9.03h-1.56l-3.49-5.31c-.49-.75-.71-1.21-.95-1.83l-.18.04c.08.45.18,1.13.18,1.81v5.29h-1.51v-9.03Z"/><path class="cls-1" d="M160.58,47.32h1.6l3.28,4.98c.52.77.76,1.21,1.1,2.05l.19-.04c-.09-.49-.16-1.1-.16-1.59v-5.4s1.49,0,1.49,0v9.03h-1.56l-3.49-5.31c-.49-.75-.71-1.21-.95-1.83l-.18.04c.08.45.18,1.13.18,1.81v5.29h-1.51v-9.03Z"/><path class="cls-1" d="M171.8,55.07h4.81v1.28h-6.34v-9.03h6.27v1.27h-4.74v2.54h4.32v1.24h-4.32v2.7Z"/><path class="cls-1" d="M179.82,55.08h4.76v1.28h-6.3v-9.03h1.53v7.75Z"/><path class="cls-1" d="M187.44,55.08h4.76v1.28h-6.3v-9.03h1.53v7.75Z"/><path class="cls-1" d="M195.07,55.07h4.81v1.28h-6.34v-9.03h6.27v1.27h-4.74v2.54h4.32v1.24h-4.32v2.7Z"/><path class="cls-1" d="M32.8,68.64h4.81v1.28h-6.34v-9.03h6.27v1.27h-4.74v2.54h4.32v1.24h-4.32v2.7Z"/><path class="cls-1" d="M39.28,60.89h1.6l3.28,4.98c.52.77.76,1.21,1.1,2.05l.19-.04c-.1-.49-.16-1.1-.16-1.59v-5.4s1.49,0,1.49,0v9.03h-1.56l-3.49-5.31c-.49-.75-.71-1.21-.95-1.83l-.18.04c.08.45.18,1.13.18,1.8v5.29h-1.51v-9.03Z"/><path class="cls-1" d="M58.81,69.91l-.92-2.39h-3.65l-.87,2.39h-1.59l3.27-9.03h1.87l3.5,9.03h-1.62ZM54.6,66.34h2.9l-1.06-2.78c-.16-.44-.27-.79-.35-1.22h-.2c-.05.44-.16.79-.31,1.22l-.98,2.78Z"/><path class="cls-1" d="M61.72,60.89h3.96c1.78,0,3.15.79,3.15,2.48,0,1.21-.85,2.09-1.89,2.16v.19c1.22.04,1.63.67,1.63,1.89,0,1.03.19,1.72.54,2.25v.05h-1.68c-.22-.48-.35-1.07-.35-1.98,0-1.22-.47-1.63-1.56-1.63h-2.28v3.61h-1.52v-9.03ZM65.6,65.09c1.02,0,1.63-.46,1.63-1.51s-.61-1.45-1.63-1.45h-2.36v2.96h2.36Z"/><path class="cls-1" d="M77.35,60.89v1.27h-2.93v7.75h-1.53v-7.75h-2.96v-1.27h7.43Z"/><path class="cls-1" d="M79.68,66.64c.01,1.52,1.05,2.18,2.21,2.18.95,0,1.98-.51,1.98-1.36,0-1.03-.94-1.22-1.68-1.38l-1.24-.28c-1.6-.34-2.61-1.17-2.61-2.47,0-1.78,1.53-2.61,3.42-2.61,2.16,0,3.57,1.25,3.72,3.01h-1.64c-.08-1.02-.94-1.78-2.09-1.78-.92,0-1.81.41-1.81,1.24,0,.73.67,1.13,1.56,1.3l1.36.3c1.66.34,2.62,1.14,2.62,2.59,0,1.68-1.7,2.7-3.61,2.69-1.98-.01-3.79-.95-3.83-3.43h1.63Z"/><path class="cls-1" d="M96.86,69.91l-.92-2.39h-3.65l-.87,2.39h-1.59l3.27-9.03h1.87l3.5,9.03h-1.61ZM92.66,66.34h2.9l-1.06-2.78c-.16-.44-.27-.79-.35-1.22h-.2c-.05.44-.16.79-.31,1.22l-.98,2.78Z"/><path class="cls-1" d="M99.78,60.89h3.73c1.95,0,3.2.88,3.2,2.74s-1.37,2.8-3.22,2.8h-2.19v3.49h-1.53v-9.03ZM103.55,65.19c1.02,0,1.56-.5,1.56-1.53s-.54-1.51-1.56-1.51h-2.24v3.04h2.24Z"/><path class="cls-1" d="M108.12,60.89h3.73c1.95,0,3.2.88,3.2,2.74s-1.37,2.8-3.22,2.8h-2.19v3.49h-1.53v-9.03ZM111.89,65.19c1.02,0,1.56-.5,1.56-1.53s-.54-1.51-1.56-1.51h-2.24v3.04h2.24Z"/><path class="cls-1" d="M118,68.65h4.76v1.28h-6.3v-9.03h1.53v7.75Z"/><path class="cls-1" d="M124.09,69.91v-9.03h1.53v9.03h-1.53Z"/><path class="cls-1" d="M134.81,68.74l1.06,1.15-.86.82-1.1-1.21c-.64.38-1.4.58-2.29.58-2.69,0-4.26-1.9-4.26-4.68s1.59-4.68,4.26-4.68,4.28,1.89,4.28,4.67c0,1.37-.38,2.53-1.09,3.35ZM131.68,68.81c.49,0,.92-.12,1.29-.34l-1.93-2.1.87-.77,1.86,2.04c.34-.57.52-1.33.52-2.23,0-2.06-.94-3.41-2.59-3.41h-.12c-1.66,0-2.62,1.34-2.62,3.41s.95,3.41,2.61,3.41h.12Z"/><path class="cls-1" d="M137.6,66.31v-5.43h1.55v5.47c0,1.57.79,2.44,2.05,2.44h.14c1.26,0,2.02-.88,2.02-2.44v-5.47h1.53v5.43c0,2.31-1.26,3.76-3.64,3.76s-3.65-1.45-3.65-3.76Z"/><path class="cls-1" d="M148.56,68.64h4.81v1.28h-6.34v-9.03h6.27v1.27h-4.74v2.54h4.32v1.24h-4.32v2.7ZM151.97,58.86l-1.1,1.41h-1.38l.8-1.41h1.68Z"/><path class="cls-1" d="M155.99,66.64c.01,1.52,1.05,2.18,2.21,2.18.95,0,1.98-.51,1.98-1.36,0-1.03-.94-1.22-1.68-1.38l-1.23-.28c-1.6-.34-2.61-1.17-2.61-2.47,0-1.78,1.53-2.61,3.42-2.61,2.16,0,3.57,1.25,3.72,3.01h-1.64c-.08-1.02-.94-1.78-2.09-1.78-.92,0-1.81.41-1.81,1.24,0,.73.66,1.13,1.56,1.3l1.36.3c1.66.34,2.62,1.14,2.62,2.59,0,1.68-1.7,2.7-3.61,2.69-1.98-.01-3.79-.95-3.83-3.43h1.63Z"/></g></svg>