<?xml version="1.0" encoding="utf-8"?>
<!-- Generator: Adobe Illustrator 27.2.0, SVG Export Plug-In . SVG Version: 6.00 Build 0)  -->
<svg version="1.1" id="Layer_1" xmlns="http://www.w3.org/2000/svg" xmlns:xlink="http://www.w3.org/1999/xlink" x="0px" y="0px"
	 viewBox="0 0 340.16 340.16" style="enable-background:new 0 0 340.16 340.16;" xml:space="preserve">
<style type="text/css">
	.st0{fill:#FFFFFF;}
</style>
<g>
	
		<rect x="93.32" y="162.71" transform="matrix(0.7071 -0.7071 0.7071 0.7071 -105.8824 125.9917)" class="st0" width="11.64" height="56.19"/>
	<path class="st0" d="M123.41,161.43l6.53,6.53c-3.24-0.74-6.87,0.06-11.3,4.48c-6.93,6.93-5.17,15.16-0.23,20.09
		c4.94,4.94,13.17,6.7,20.09-0.23c4.43-4.43,5.22-8.06,4.48-11.3l2.84,2.84l12.09-12.09l-7.83-7.83l-3.86,3.86l-21.85-21.85
		l-23.39,23.39l7.27,7.27L123.41,161.43z M136.47,174.49c1.76,1.76,2.1,4.48-1.59,8.17c-3.75,3.75-6.47,3.41-8.23,1.65
		c-1.76-1.76-2.1-4.49,1.65-8.23C131.98,172.39,134.71,172.73,136.47,174.49z"/>
	<path class="st0" d="M170.81,158.88l-3.63-3.63c5.11,1.02,9.14-0.74,12.43-4.03c8.57-8.57,5.62-19.7-2.72-28.04
		c-8.34-8.34-19.53-11.35-28.1-2.78c-3.29,3.29-5.05,7.32-4.03,12.43l-13.68-13.68l-8.23,8.23l39.74,39.74L170.81,158.88z
		 M154.57,129.93c4.26-4.26,8.74-3.86,14.08,1.48c5.28,5.28,5.68,9.76,1.42,14.02c-4.31,4.31-8.8,3.92-14.08-1.36
		C150.65,138.73,150.26,134.24,154.57,129.93z"/>
	<path class="st0" d="M210.2,120.62c9.48-9.48,7.95-20.89-0.96-29.8c-8.91-8.91-20.38-10.5-29.86-1.02
		c-9.48,9.48-7.89,20.95,1.02,29.86C189.31,128.57,200.72,130.1,210.2,120.62z M187.04,97.46c4.6-4.6,8.29-4.09,13.96,1.59
		s6.13,9.31,1.53,13.91c-4.54,4.54-8.23,4.14-13.91-1.53C182.95,105.75,182.5,102,187.04,97.46z"/>
	<path class="st0" d="M258.95,149.1l8.23-8.23l-15.78-15.78c-5.11-5.11-5.22-8.4-0.62-13c4.54-4.54,7.89-4.49,13,0.62l15.78,15.78
		l8.23-8.23l-17.2-17.2c-9.48-9.48-18.73-7.38-27.47,1.36c-8.8,8.8-10.84,17.99-1.36,27.47L258.95,149.1z"/>
	<polygon class="st0" points="237.27,155.45 226.37,166.35 234.03,174.01 253.16,154.88 223.47,125.2 215.24,133.43 	"/>
	<path class="st0" d="M191.46,157.21l3.63,3.63c-5.11-1.02-9.14,0.74-12.43,4.03c-8.57,8.57-5.62,19.7,2.73,28.04
		c8.34,8.34,19.53,11.35,28.1,2.78c3.29-3.29,5.05-7.32,4.03-12.43l13.68,13.68l8.23-8.23l-39.74-39.74L191.46,157.21z
		 M207.69,186.16c-4.26,4.26-8.74,3.86-14.08-1.48c-5.28-5.28-5.68-9.76-1.42-14.02c4.31-4.31,8.8-3.92,14.08,1.36
		C211.61,177.36,212.01,181.85,207.69,186.16z"/>
	<path class="st0" d="M171.82,221.69l-6.53-6.53c3.24,0.74,6.87-0.06,11.3-4.48c6.92-6.92,5.17-15.16,0.23-20.09
		c-4.94-4.94-13.17-6.7-20.09,0.23c-4.43,4.43-5.22,8.06-4.48,11.3l-2.84-2.84l-12.09,12.09l7.83,7.83l3.86-3.86l21.85,21.85
		l23.39-23.39l-7.27-7.27L171.82,221.69z M158.76,208.64c-1.76-1.76-2.1-4.49,1.59-8.18c3.75-3.75,6.47-3.41,8.23-1.65
		c1.76,1.76,2.1,4.48-1.65,8.23C163.25,210.74,160.52,210.4,158.76,208.64z"/>
	
		<rect x="137.11" y="214.44" transform="matrix(0.7071 -0.7071 0.7071 0.7071 -124.6099 170.0213)" class="st0" width="11.64" height="41.98"/>
	
		<rect x="159.16" y="253.47" transform="matrix(0.7071 -0.7071 0.7071 0.7071 -133.7452 192.0769)" class="st0" width="11.64" height="8.03"/>
	<polygon class="st0" points="109.5,239.17 131.52,261.2 119.88,272.84 97.86,250.81 89.63,259.04 119.31,288.73 147.41,260.63 
		117.73,230.94 	"/>
	<path class="st0" d="M68.26,69.01c27.07-27.07,63.06-41.98,101.35-41.98c31.76,0,61.95,10.27,86.77,29.23l7.15-7.15
		C203.37,2.39,116.43,6.66,61.17,61.92C5.91,117.18,1.64,204.12,48.36,264.28l7.15-7.15c-18.96-24.82-29.23-55-29.23-86.77
		C26.28,132.07,41.19,96.08,68.26,69.01z"/>
	<path class="st0" d="M278.05,61.92c-1.8-1.8-3.64-3.55-5.51-5.24l-7.1,7.1c1.88,1.69,3.72,3.43,5.52,5.23
		c27.07,27.07,41.98,63.06,41.98,101.35c0,38.28-14.91,74.28-41.98,101.35c-27.07,27.07-63.06,41.98-101.35,41.98
		c-38.28,0-74.28-14.91-101.35-41.98c-1.8-1.8-3.54-3.64-5.23-5.52l-7.1,7.1c1.69,1.87,3.44,3.71,5.24,5.51
		c59.89,59.89,156.99,59.89,216.87,0C337.93,218.91,337.93,121.81,278.05,61.92z"/>
	<path class="st0" d="M80.39,232.25l-24.88,24.88c2.37,3.11,4.87,6.13,7.51,9.06l25.65-25.65L80.39,232.25z"/>
	<path class="st0" d="M241.05,88.16l24.39-24.39c-2.93-2.64-5.95-5.14-9.06-7.51l-23.61,23.61L241.05,88.16z"/>
</g>
</svg>
