<?xml version="1.0" encoding="UTF-8"?>
<svg id="Layer_1" xmlns="http://www.w3.org/2000/svg" version="1.1" viewBox="0 0 15 12">
  <!-- Generator: Adobe Illustrator 29.6.0, SVG Export Plug-In . SVG Version: 2.1.1 Build 207)  -->
  <defs>
    <style>
      .st0 {
        fill: #fff;
      }
    </style>
  </defs>
  <path class="st0" d="M14.1,5.7c0,.2,0,.4-.2.6l-4.9,4.9c-.2.1-.3.2-.5.2s-.4,0-.5-.2c-.1-.1-.2-.3-.2-.5s0-.2,0-.3c0,0,0-.2.1-.2l4-3.7H1c-.2,0-.4,0-.5-.2-.1-.1-.2-.3-.2-.5s0-.4.2-.5c.1-.1.3-.2.5-.2h10.8s-3.9-3.7-3.9-3.7c0,0-.1-.1-.1-.2,0,0,0-.2,0-.3,0-.2,0-.4.2-.5.1-.1.3-.2.5-.2s.2,0,.3,0c0,0,.2,0,.3.2l4.9,4.9c.2.2.2.3.2.5Z"/>
</svg>