<svg width="258" height="93" viewBox="0 0 258 93" fill="none" xmlns="http://www.w3.org/2000/svg">
<g clip-path="url(#clip0_2377_1637)">
<path fill-rule="evenodd" clip-rule="evenodd" d="M44.6485 59.3134H46.7928L45.3748 61.1118H43.5764L44.6139 59.3134H44.6485ZM193.915 76.9169H196.059L194.641 78.7153H192.843L193.88 76.9169H193.915ZM33.5469 32.5451V34.3781H7.91984V34.7239C8.12735 40.9837 11.8625 44.9609 17.1193 44.9609H17.4651C22.0995 44.9609 24.9008 41.952 25.9038 38.2169H33.8928C32.2673 45.8601 26.2496 51.1515 16.981 51.0823C6.29437 51.0132 0 43.7159 0 32.7526C0 21.7893 6.81314 14.2845 16.9118 14.2845C27.0105 14.2845 33.5469 21.236 33.5469 32.5451ZM25.5579 28.8791C25.0737 24.1065 22.0303 20.1638 16.981 20.1638H16.4968C11.5166 20.1638 8.64611 24.2448 8.12735 28.8791H25.5233H25.5579ZM39.3917 5.50004C39.3917 2.90621 41.5705 0.865723 44.2335 0.865723C46.8965 0.865723 48.8678 2.90621 48.8678 5.50004C48.8678 8.09387 46.8273 10.2035 44.2335 10.2035C41.6397 10.2035 39.3917 8.09387 39.3917 5.50004ZM40.2217 50.2177H48.0724V15.1145H40.2217V50.2177ZM68.6155 33.0984L64.4654 37.0411V50.2523H56.6147V1.41907H64.4654V28.0145L77.9533 15.0799H87.4987L73.8724 27.9453L75.152 29.64L89.1241 50.2177H79.8555L68.6155 33.0984Z" fill="white"/>
<path fill-rule="evenodd" clip-rule="evenodd" d="M123.018 32.5452C123.018 43.7851 115.859 51.0824 105.449 51.0824C95.0388 51.0824 87.949 43.7851 87.949 32.5452C87.949 21.3052 94.9696 14.2846 105.449 14.2846C115.928 14.2846 123.018 21.3052 123.018 32.5452ZM114.821 32.5452C114.821 25.9395 112.02 20.4752 105.76 20.4752H105.137C98.9468 20.4752 96.1455 26.147 96.1455 32.5452C96.1455 38.9433 98.8776 44.8918 105.137 44.8918H105.76C112.089 44.8918 114.821 39.2891 114.821 32.5452ZM136.644 15.1146V15.8755C136.644 17.6393 136.367 18.4001 135.675 20.2331L136.713 20.5098C138.269 16.9822 142.316 14.25 148.23 14.25C154.144 14.25 160.3 16.8438 160.3 26.1816V50.1832H152.449V27.4958C152.449 22.5849 149.302 20.6827 145.013 20.6827H144.806C140.379 20.6827 136.506 23.4149 136.506 28.3259V50.1487H128.655V15.1146H136.644ZM48.5227 71.9369V73.5969H40.3262V61.942H48.4189V63.602H42.2975V66.8875H47.8656V68.4784H42.2975V71.9715H48.4881L48.5227 71.9369ZM55.3012 73.8044C51.9811 73.8044 49.9406 71.5564 49.9406 67.7867C49.9406 64.017 52.0157 61.7345 55.3358 61.7345C58.6559 61.7345 60.0047 63.4637 60.3852 66.0229H58.3793C58.068 64.3975 57.0305 63.3945 55.405 63.3945H55.2321C53.1916 63.3945 52.0157 65.0891 52.0157 67.7867C52.0157 70.4843 53.1916 72.179 55.2321 72.179H55.405C57.2034 72.179 58.1717 70.8993 58.3447 69.6543H60.3506C60.1431 71.7294 58.6213 73.839 55.3358 73.839M72.9739 67.7521C72.9739 71.3489 70.9334 73.8044 67.4404 73.8044C63.9474 73.8044 61.9415 71.3489 61.9415 67.7521C61.9415 64.1554 63.9819 61.6999 67.4404 61.6999C70.8988 61.6999 72.9739 64.1208 72.9739 67.7176M70.8988 67.7867C70.8988 65.1237 69.6884 63.3945 67.5441 63.3945H67.3712C65.227 63.3945 63.9819 65.1237 63.9819 67.7867C63.9819 70.4497 65.1924 72.179 67.3366 72.179H67.5096C69.6538 72.179 70.8642 70.4497 70.8642 67.7867M83.3146 71.9715V73.6315H75.1873V61.9765H77.1586V71.9715H83.3146ZM93.2058 71.9369V73.5969H85.0093V61.942H93.102V63.602H86.9806V66.8875H92.5487V68.4784H86.9806V71.9715H93.1712L93.2058 71.9369ZM105.103 61.942C107.628 61.942 109.253 63.0832 109.253 65.4696C109.253 67.8559 107.489 69.0664 105.103 69.0664H102.267V73.5623H100.296V61.9074H105.103V61.942ZM107.143 65.5042C107.143 64.1554 106.452 63.5674 105.137 63.5674H102.232V67.5101H105.137C106.452 67.5101 107.143 66.853 107.143 65.5387V65.5042ZM116.17 61.942C118.452 61.942 120.251 62.9449 120.251 65.1583C120.251 67.3717 119.144 67.8559 117.83 67.9597V68.2017C119.421 68.2709 119.94 69.0664 119.94 70.6227C119.94 72.179 120.182 72.8361 120.631 73.5278V73.5969H118.452C118.176 72.9744 118.003 72.2135 118.003 71.0377C118.003 69.8618 117.38 68.928 115.997 68.928H113.057V73.5969H111.086V61.942H116.204H116.17ZM118.141 65.435C118.141 64.0862 117.346 63.5674 116.032 63.5674H112.988V67.3717H116.032C117.346 67.3717 118.141 66.7838 118.141 65.435ZM133.116 67.7521C133.116 71.3489 131.076 73.8044 127.583 73.8044C124.09 73.8044 122.084 71.3489 122.084 67.7521C122.084 64.1554 124.124 61.6999 127.583 61.6999C131.041 61.6999 133.116 64.1208 133.116 67.7176M131.041 67.7867C131.041 65.1237 129.831 63.3945 127.686 63.3945H127.514C125.369 63.3945 124.124 65.1237 124.124 67.7867C124.124 70.4497 125.335 72.179 127.479 72.179H127.652C129.796 72.179 131.007 70.4497 131.007 67.7867M137.301 63.602V66.8875H142.765V68.513H137.301V73.6315H135.33V61.9765H143.353V63.6366H137.301V63.602ZM153.279 71.9369V73.5969H145.082V61.942H153.175V63.602H147.054V66.8875H152.622V68.4784H147.054V71.9715H153.244L153.279 71.9369ZM156.668 69.3776C156.668 71.3489 158.017 72.2135 159.539 72.2135C161.06 72.2135 162.098 71.5564 162.098 70.4497C162.098 69.343 160.888 68.8588 159.919 68.6513L158.328 68.2709C156.253 67.8213 154.974 66.7492 154.974 65.0891C154.974 63.4291 156.945 61.7345 159.4 61.7345C161.856 61.7345 164 63.3599 164.208 65.6079H162.098C161.994 64.2937 160.888 63.3253 159.4 63.3253C157.913 63.3253 157.083 63.8441 157.083 64.9162C157.083 65.9883 157.948 66.3688 159.089 66.6109L160.853 66.9913C162.997 67.4409 164.242 68.4784 164.242 70.346C164.242 72.2135 162.063 73.839 159.573 73.8044C157.014 73.8044 154.697 72.594 154.628 69.3776H156.737H156.668ZM167.666 69.3776C167.666 71.3489 169.015 72.2135 170.537 72.2135C172.058 72.2135 173.096 71.5564 173.096 70.4497C173.096 69.343 171.885 68.8588 170.917 68.6513L169.326 68.2709C167.251 67.8213 165.971 66.7492 165.971 65.0891C165.971 63.4291 167.943 61.7345 170.398 61.7345C172.854 61.7345 174.998 63.3599 175.206 65.6079H173.096C172.992 64.2937 171.885 63.3253 170.398 63.3253C168.911 63.3253 168.081 63.8441 168.081 64.9162C168.081 65.9883 168.946 66.3688 170.087 66.6109L171.851 66.9913C173.995 67.4409 175.24 68.4784 175.24 70.346C175.24 72.2135 173.061 73.839 170.571 73.8044C168.012 73.8044 165.695 72.594 165.626 69.3776H167.735H167.666Z" fill="white"/>
<path fill-rule="evenodd" clip-rule="evenodd" d="M177.315 73.5968H179.286V61.9418H177.315V73.5968ZM192.567 67.752C192.567 71.3488 190.526 73.8043 187.033 73.8043C183.54 73.8043 181.534 71.3488 181.534 67.752C181.534 64.1552 183.575 61.6997 187.033 61.6997C190.492 61.6997 192.567 64.1206 192.567 67.7174M190.492 67.7866C190.492 65.1236 189.281 63.3943 187.137 63.3943H186.964C184.82 63.3943 183.575 65.1236 183.575 67.7866C183.575 70.4496 184.785 72.1788 186.93 72.1788H187.103C189.247 72.1788 190.457 70.4496 190.457 67.7866M196.855 61.9418L201.109 68.3745C201.766 69.3775 202.078 69.9308 202.527 71.0029L202.769 70.9338C202.631 70.3112 202.562 69.5158 202.562 68.8933V61.9072H204.499V73.5622H202.493L197.997 66.7145C197.374 65.7461 197.097 65.1582 196.786 64.3627L196.544 64.4319C196.648 65.0198 196.786 65.8844 196.786 66.749V73.5968H194.85V61.9418H196.925H196.855ZM209.34 61.9418L213.594 68.3745C214.251 69.3775 214.563 69.9308 215.012 71.0029L215.254 70.9338C215.116 70.3112 215.047 69.5158 215.047 68.8933V61.9072H216.984V73.5622H214.978L210.482 66.7145C209.859 65.7461 209.582 65.1582 209.271 64.3627L209.029 64.4319C209.133 65.0198 209.271 65.8844 209.271 66.749V73.5968H207.334V61.9418H209.41H209.34ZM227.981 71.9367V73.5968H219.785V61.9418H227.878V63.6019H221.756V66.8874H227.324V68.4783H221.756V71.9713H227.947L227.981 71.9367ZM238.253 71.9713V73.6313H230.126V61.9764H232.097V71.9713H238.253ZM248.11 71.9713V73.6313H239.982V61.9764H241.954V71.9713H248.11ZM258.001 71.9367V73.5968H249.804V61.9418H257.897V63.6019H251.776V66.8874H257.344V68.4783H251.776V71.9713H257.966L258.001 71.9367ZM48.5227 89.471V91.1311H40.3262V79.4761H48.4189V81.1362H42.2975V84.4217H47.8656V86.0126H42.2975V89.5056H48.4881L48.5227 89.471ZM52.7766 79.4415L57.0305 85.8742C57.6876 86.8772 57.9988 87.4305 58.4484 88.5372L58.6905 88.4681C58.5522 87.8456 58.483 87.0501 58.483 86.4276V79.4415H60.4197V91.0965H58.4138L53.9179 84.2488C53.2953 83.2804 53.0187 82.6925 52.7074 81.897L52.4653 81.9662C52.5691 82.5541 52.7074 83.4187 52.7074 84.2834V91.1311H50.7707V79.4761H52.8457L52.7766 79.4415ZM74.7377 88.0185H70.0342L68.9275 91.0965H66.887L71.1063 79.4415H73.5272L78.0578 91.0965H75.9827L74.8069 88.0185H74.7377ZM74.2189 86.4968L72.8356 82.9C72.6281 82.3466 72.4897 81.897 72.386 81.3091H72.1093C72.0401 81.8624 71.9018 82.312 71.6943 82.9L70.4492 86.4968H74.1843H74.2189ZM84.8018 79.4415C87.0844 79.4415 88.8827 80.4445 88.8827 82.6579C88.8827 84.8713 87.776 85.3555 86.4618 85.4592V85.7013C88.0527 85.7705 88.5715 86.5659 88.5715 88.1222C88.5715 89.6785 88.8136 90.3356 89.2632 91.0273V91.0965H87.0844C86.8077 90.474 86.6348 89.7131 86.6348 88.5372C86.6348 87.3614 86.0122 86.4276 84.6289 86.4276H81.6892V91.0965H79.7179V79.4415H84.8364H84.8018ZM86.7731 82.9346C86.7731 81.5858 85.9776 81.067 84.6634 81.067H81.62V84.8713H84.6634C85.9776 84.8713 86.7731 84.2834 86.7731 82.9346ZM99.846 81.1016H96.0763V91.0965H94.105V81.1016H90.3007V79.4415H99.8806V81.1016H99.846ZM102.855 86.8772C102.855 88.8485 104.204 89.7131 105.725 89.7131C107.247 89.7131 108.285 89.056 108.285 87.9493C108.285 86.8426 107.074 86.3584 106.106 86.1509L104.515 85.7705C102.44 85.3209 101.16 84.2488 101.16 82.5887C101.16 80.9287 103.132 79.234 105.587 79.234C108.043 79.234 110.187 80.8595 110.394 83.1075H108.285C108.181 81.7933 107.074 80.8249 105.587 80.8249C104.1 80.8249 103.27 81.3437 103.27 82.4158C103.27 83.4879 104.134 83.8683 105.276 84.1104L107.04 84.4909C109.184 84.9405 110.429 85.978 110.429 87.8456C110.429 89.7131 108.25 91.3386 105.76 91.304C103.201 91.304 100.884 90.0935 100.814 86.8772H102.924H102.855ZM123.848 88.0185H119.144L118.037 91.0965H115.997L120.216 79.4415H122.637L127.168 91.0965H125.093L123.917 88.0185H123.848ZM123.363 86.4968L121.98 82.9C121.773 82.3466 121.634 81.897 121.53 81.3091H121.254C121.185 81.8624 121.046 82.312 120.839 82.9L119.594 86.4968H123.329H123.363ZM133.6 79.4415C136.125 79.4415 137.751 80.5828 137.751 82.9691C137.751 85.3555 135.987 86.5659 133.6 86.5659H130.765V91.0619H128.793V79.4069H133.6V79.4415ZM135.675 83.0383C135.675 81.7241 134.984 81.1016 133.67 81.1016H130.765V85.0442H133.67C134.984 85.0442 135.675 84.3871 135.675 83.0729V83.0383ZM144.391 79.4415C146.915 79.4415 148.541 80.5828 148.541 82.9691C148.541 85.3555 146.777 86.5659 144.391 86.5659H141.555V91.0619H139.584V79.4069H144.391V79.4415ZM146.466 83.0383C146.466 81.7241 145.774 81.1016 144.46 81.1016H141.555V85.0442H144.46C145.774 85.0442 146.466 84.3871 146.466 83.0729V83.0383ZM158.467 89.471V91.1311H150.339V79.4761H152.311V89.471H158.467ZM160.161 91.0965H162.133V79.4415H160.161V91.0965ZM173.995 89.6094L175.378 91.0965L174.272 92.134L172.854 90.5777C172.024 91.0619 171.055 91.3386 169.88 91.3386C166.421 91.3386 164.381 88.8831 164.381 85.2863C164.381 81.6895 166.421 79.234 169.88 79.234C173.338 79.234 175.413 81.6549 175.413 85.2517C175.413 88.8485 174.929 88.5027 173.995 89.5748M171.643 89.2635L169.153 86.5313L170.26 85.5284L172.646 88.1568C173.096 87.4305 173.303 86.4276 173.303 85.2863C173.303 82.6233 172.093 80.8941 169.949 80.8941H169.776C167.632 80.8941 166.386 82.6233 166.386 85.2863C166.386 87.9493 167.597 89.6785 169.741 89.6785H169.914C170.537 89.6785 171.09 89.5056 171.574 89.2289M177.626 86.4622V79.4415H179.632V86.4968C179.632 88.5372 180.635 89.6439 182.295 89.6439H182.468C184.094 89.6439 185.062 88.5027 185.062 86.4968V79.4415H187.033V86.4622C187.033 89.4364 185.408 91.304 182.33 91.304C179.252 91.304 177.626 89.4364 177.626 86.4622ZM197.962 89.471V91.1311H189.766V79.4761H197.858V81.1362H191.737V84.4217H197.305V86.0126H191.737V89.5056H197.928L197.962 89.471ZM201.351 86.8772C201.351 88.8485 202.7 89.7131 204.222 89.7131C205.744 89.7131 206.781 89.056 206.781 87.9493C206.781 86.8426 205.571 86.3584 204.602 86.1509L203.011 85.7705C200.936 85.3209 199.657 84.2488 199.657 82.5887C199.657 80.9287 201.628 79.234 204.084 79.234C206.539 79.234 208.683 80.8595 208.891 83.1075H206.781C206.677 81.7933 205.571 80.8249 204.084 80.8249C202.596 80.8249 201.766 81.3437 201.766 82.4158C201.766 83.4879 202.631 83.8683 203.772 84.1104L205.536 84.4909C207.68 84.9405 208.925 85.978 208.925 87.8456C208.925 89.7131 206.747 91.3386 204.256 91.304C201.697 91.304 199.38 90.0935 199.311 86.8772H201.421H201.351Z" fill="white"/>
</g>
<defs>
<clipPath id="clip0_2377_1637">
<rect width="258" height="91.2684" fill="white" transform="translate(0 0.865723)"/>
</clipPath>
</defs>
</svg>
