<svg height="68" viewBox="0 0 181 68" width="181" xmlns="http://www.w3.org/2000/svg"><g fill="none" fill-rule="evenodd" transform="translate(2 3)"><path d="m84.5550502 31.9713113-31.8721773-31.64204715-10.4017558 10.50554715-10.4077425-10.50554715-31.8733746 31.64204715v10.6630472h10.2622676s-.61123416 19.7689245 16.0399565 19.7689245c15.576592 0 15.9890702-14.8751321 15.977097-16.794849-.0107759 1.926849.4052943 16.7972264 15.9758996 16.7972264 16.6511907 0 16.0399566-19.7724906 16.0399566-19.7724906h10.2598729z" fill="#fffffe"/><path d="m84.5550502 31.9713113-31.8721773-31.64204715-10.4017558 10.50554715-10.4077425-10.50554715-31.8733746 31.64204715v10.6630472h10.2622676s-.61123416 19.7689245 16.0399565 19.7689245c15.576592 0 15.9890702-14.8751321 15.977097-16.794849-.0107759 1.926849.4052943 16.7972264 15.9758996 16.7972264 16.6511907 0 16.0399566-19.7724906 16.0399566-19.7724906h10.2598729z" stroke="#fffffe" stroke-width="4"/><path d="m42.3050635 10.9905283-10.4233076-10.52159434-31.87277597 31.64145284v10.6630472h10.26166887s-.61063542 19.7689245 16.0393579 19.7689245c16.6517893 0 15.9747023-16.9998962 15.9747023-16.9998962s-.6830735 9.6449434-11.1494849 9.6449434-9.7186823-12.4139717-9.7186823-12.4139717v-10.6630472h-6.3865284l16.8517425-16.7306604 3.1190301 3.0097359z" fill="#da322a"/><g fill="#1a1919"><path d="m63.4312542 32.1103868h6.1153344l-16.8553344-16.7306604-16.9253779 16.8013868h6.6625117v10.5923208h-21.0663245v-10.6630472l31.3291907-31.64145284 31.8733746 31.64145284v10.6618585h-10.2616689s.6124314 19.7724905-16.0393579 19.7724905c-16.648796 0-15.971709-17.0046509-15.971709-17.0046509s.6800802 9.6473208 11.1476889 9.6473208c10.4664114 0 9.9916723-12.4139717 9.9916723-12.4139717z"/><path d="m119.62109 6.12407547v1.71348113h-12.649732v7.6253774h11.846926v1.7122924h-11.846926v8.3338302h12.798799v1.7128868h-14.824073v-21.09786793z"/><path d="m152.033261 6.12407547 8.333378 21.09786793h-2.172545l-2.588616-6.5597264h-9.674381l-2.558682 6.5597264h-2.143211l8.540515-21.09786793zm2.886749 12.82287733-4.108619-10.81222638-4.255889 10.81222638z"/><path d="m171.291027 6.12407547c.893204 0 1.750488.08380189 2.572451.24962264.825555.1693868 1.549338.45526415 2.173743.8594151.626799.40236792 1.126083.93549056 1.504438 1.59461321.375361.66031132.565137 1.48228298.565137 2.46888678 0 .5491698-.090398 1.0888302-.268799 1.6088774-.180198.5236132-.431636.9961132-.756709 1.4186886-.329863.4237642-.716599.7845283-1.161405 1.0787265-.447799.2959811-.948281.5034056-1.503241.6198962v.0600283c1.366746.1777075 2.458706.7328207 3.272886 1.6671226.813582.9390566 1.22187 2.0962359 1.22187 3.4745095 0 .3352075-.031729.7138019-.090398 1.137566-.061662.4231698-.180197.8576321-.358599 1.2986321-.177802.4433773-.43403.8831887-.772873 1.3164622-.338244.433868-.786043.8124623-1.355371 1.1387548-.564538.3239151-1.259585.5895849-2.083943.7952264-.82316.2068302-1.808558.3108396-2.959187.3108396h-8.989512v-21.09786793zm0 9.24851883c.811786 0 1.518806-.0927169 2.112679-.2775566.59507-.189 1.091361-.4457547 1.487675-.7708585.397512-.3251037.694448-.7054811.892007-1.1363773.198756-.4338679.299331-.8974528.299331-1.3895661 0-2.64065089-1.597231-3.9606792-4.791692-3.9606792h-6.964238v7.5350377zm0 10.1364623c.755511 0 1.467321-.0641887 2.142013-.190783.67589-.1301604 1.268565-.3595755 1.787007-.6965661.516645-.3316415.921341-.7833396 1.218277-1.3426132.299332-.5622452.4478-1.2665377.4478-2.114066 0-1.3592547-.480726-2.3785472-1.441579-3.059066-.963846-.6787359-2.34915-1.0198868-4.153518-1.0198868h-6.964238v8.4229811z"/><path d="m106.971358 37.3584057v11.3483207l12.351599-11.3483207h2.738879l-9.492388 8.7165849 9.936595 12.381283h-2.616752l-8.841044-10.9893396-4.076889 3.750283v7.2390566h-2.02288v-21.0978679z"/><path d="m140.929873 58.4562736-.265207-3.8388396h-.061064c-.356204.7464905-.798615 1.3919434-1.324839 1.9339811-.525027.5420377-1.10573.9854151-1.743305 1.3277547-.632187.3459057-1.310471.5979057-2.036649.7548113-.723782.1580944-1.47211.2377359-2.247378.2377359-1.666076 0-3.12801-.3007359-4.390588-.9016132-1.258987-.6026604-2.30485-1.4050189-3.13699-2.4088585-.833937-1.0032453-1.459539-2.1675566-1.875609-3.4858019-.417267-1.3200283-.625602-2.7095943-.625602-4.1663208 0-1.4579151.208335-2.8474811.625602-4.1675094.41607-1.319434 1.041672-2.484934 1.875609-3.5006604.83214-1.0157264 1.878003-1.8228396 3.13699-2.423717 1.262578-.5990943 2.724512-.9022075 4.390588-.9022075 1.111117 0 2.162967.1473962 3.156148.444566.990187.2947925 1.876207.7405472 2.647883 1.3289434.77407.591368 1.429006 1.3200283 1.966006 2.1871698.535204.8683302.89979 1.8816793 1.099743 3.0436133h-2.022281c-.058669-.6103868-.264609-1.2255283-.61303-1.8466133-.347224-.6198962-.812385-1.1863018-1.396081-1.6998113-.586689-.5105377-1.285926-.9307358-2.100107-1.2558396-.813582-.3251038-1.725943-.4873585-2.738281-.4873585-1.408652 0-2.617949.2680472-3.630287.7970094-1.011739.531934-1.840886 1.2386038-2.485047 2.1128774-.645358.8790283-1.121294 1.8656321-1.429007 2.9693208-.309508 1.1066603-.461568 2.2370943-.461568 3.4002169 0 1.1435095.15206 2.2691887.461568 3.3811982.307713 1.1131981.783649 2.1105 1.429007 2.9847735.644161.876651 1.473308 1.5821321 2.485047 2.1140661 1.012338.5313396 2.221635.7970094 3.630287.7970094 1.171582 0 2.218044-.192566 3.140582-.5765094.922539-.3833491 1.700201-.9218208 2.33598-1.6100661.636378-.6888396 1.111117-1.5066509 1.429007-2.4528396.316692-.9438113.465759-1.9779622.446602-3.1018585h-7.233037v-1.7122924h9.018846v10.7236698z"/><path d="m146.706365 37.3584057 6.906765 18.8821698h.058071l6.843906-18.8821698h2.142013l-7.885578 21.0978679h-2.350947l-7.858638-21.0978679z"/><path d="m137.255883 10.3343774c-.407689-.6383208-.903381-1.17679249-1.489472-1.61125476-.583097-.43267924-1.229652-.76253773-1.933679-.98779245-.705224-.2264434-1.442775-.34115094-2.218043-.34115094-1.409251 0-2.619147.26804717-3.629689.79760377-1.012338.53133962-1.842682 1.23741509-2.485645 2.11347168-.646556.876651-1.123689 1.8656321-1.430204 2.9699151-.306516 1.1036887-.457977 2.2353113-.457977 3.398434 0 1.1435094.151461 2.2709717.457977 3.3853585.306515 1.1108207.783648 2.1057452 1.430204 2.9818019.642963.8754622 1.473307 1.5809433 2.485645 2.114066 1.010542.5313396 2.220438.7976038 3.629689.7976038.991385 0 1.885786-.1788963 2.678415-.5331227.792628-.3542264 1.480491-.8368302 2.055806-1.4484056.572919-.6097925 1.041672-1.3235944 1.397277-2.1408114.358-.8160283.585492-1.6980283.682475-2.6442169h2.025274c-.137692 1.298632-.445404 2.4700754-.921341 3.5161132-.477133 1.044849-1.09196 1.9292264-1.845077 2.6572924-.755511.7298491-1.641531 1.2926887-2.663448 1.6855472-1.023113.3934528-2.159374.5907736-3.409381.5907736-1.664281 0-3.130405-.3007359-4.388194-.9010189-1.263177-.600283-2.308441-1.4020472-3.139983-2.4076698-.834535-1.0050283-1.45894-2.1681509-1.876208-3.4858019-.417866-1.321217-.624404-2.7084057-.624404-4.1675094 0-1.4579151.206538-2.8462925.624404-4.1657264.417268-1.3200283 1.041673-2.486717 1.876208-3.50244344.831542-1.01453773 1.876806-1.82165094 3.139983-2.4225283 1.257789-.60028302 2.723913-.90101887 4.388194-.90101887 1.012338 0 1.999532.14620755 2.961582.44218868s1.835498.73519811 2.619147 1.31527359c.785445.58185849 1.436789 1.29803773 1.964211 2.142.525027.84812264.857284 1.82343394.997371 2.92652834h-2.025274c-.177204-.8094906-.46995-1.5316132-.875843-2.1735"/></g></g></svg>