<svg width="261" height="99" viewBox="0 0 261 99" fill="none" xmlns="http://www.w3.org/2000/svg">
<path fill-rule="evenodd" clip-rule="evenodd" d="M124.812 50.8996L78.8529 5.29785L63.8537 20.4382L48.8458 5.29785L2.88477 50.8996V66.267H17.6828C17.6828 66.267 16.8014 94.7575 40.8123 94.7575C63.2736 94.7575 63.8683 73.3198 63.8511 70.5531C63.8355 73.33 64.4355 94.7609 86.8882 94.7609C110.899 94.7609 110.018 66.2652 110.018 66.2652H124.812V50.8996Z" fill="#FFFFFE"/>
<path fill-rule="evenodd" clip-rule="evenodd" d="M124.812 50.8996L78.8529 5.29785L63.8537 20.4382L48.8458 5.29785L2.88477 50.8996V66.267H17.6828C17.6828 66.267 16.8014 94.7575 40.8123 94.7575C63.2736 94.7575 63.8683 73.3198 63.8511 70.5531C63.8355 73.33 64.4355 94.7609 86.8882 94.7609C110.899 94.7609 110.018 66.2652 110.018 66.2652H124.812V50.8996Z" stroke="#FFFFFE" stroke-width="4"/>
<path fill-rule="evenodd" clip-rule="evenodd" d="M63.8889 20.6625L48.8586 5.49902L2.89844 51.0999V66.4673H17.6957C17.6957 66.4673 16.8151 94.9578 40.8242 94.9578C64.8359 94.9578 63.8596 70.4579 63.8596 70.4579C63.8596 70.4579 62.8746 84.358 47.7821 84.358C32.6897 84.358 33.7679 66.4673 33.7679 66.4673V51.0999H24.5586L48.8586 26.9881L53.3562 31.3257L63.8889 20.6625Z" fill="#DA322A"/>
<path fill-rule="evenodd" clip-rule="evenodd" d="M94.3528 51.0999H103.171L78.8658 26.9881L54.4596 51.2019H64.0669V66.4673H33.6895V51.0999L78.8658 5.49902L124.827 51.0999V66.4656H110.03C110.03 66.4656 110.913 94.9612 86.9011 94.9612C62.8937 94.9612 63.87 70.4545 63.87 70.4545C63.87 70.4545 64.8507 84.358 79.9449 84.358C95.0373 84.358 94.3528 66.4673 94.3528 66.4673V51.0999Z" fill="#1A1919"/>
<path fill-rule="evenodd" clip-rule="evenodd" d="M175.378 13.6489V16.1184H157.137V27.1079H174.22V29.5756H157.137V41.5861H175.593V44.0547H154.217V13.6489H175.378Z" fill="white"/>
<path fill-rule="evenodd" clip-rule="evenodd" d="M222.116 13.6489L234.133 44.0547H231L227.268 34.601H213.317L209.628 44.0547H206.537L218.852 13.6489H222.116ZM226.279 32.129L220.355 16.5466L214.218 32.129H226.279Z" fill="white"/>
<path fill-rule="evenodd" clip-rule="evenodd" d="M249.885 13.6489C251.173 13.6489 252.409 13.7697 253.594 14.0087C254.785 14.2528 255.828 14.6648 256.729 15.2472C257.632 15.8271 258.352 16.5955 258.898 17.5454C259.439 18.497 259.713 19.6816 259.713 21.1035C259.713 21.8949 259.583 22.6727 259.325 23.4221C259.065 24.1768 258.703 24.8577 258.234 25.4667C257.758 26.0774 257.201 26.5974 256.559 27.0214C255.914 27.4479 255.192 27.7469 254.392 27.9147V28.0012C256.363 28.2574 257.937 29.0574 259.111 30.4039C260.284 31.7572 260.873 33.4249 260.873 35.4112C260.873 35.8943 260.827 36.44 260.743 37.0507C260.654 37.6605 260.483 38.2867 260.226 38.9222C259.969 39.5612 259.6 40.1951 259.111 40.8195C258.623 41.4448 257.978 41.9904 257.157 42.4606C256.343 42.9275 255.34 43.3103 254.152 43.6067C252.965 43.9048 251.544 44.0547 249.885 44.0547H236.922V13.6489H249.885ZM249.885 26.9777C251.055 26.9777 252.075 26.8441 252.931 26.5777C253.789 26.3053 254.505 25.9353 255.076 25.4667C255.65 24.9982 256.078 24.45 256.363 23.829C256.649 23.2037 256.794 22.5356 256.794 21.8264C256.794 18.0207 254.491 16.1184 249.885 16.1184H239.842V26.9777H249.885ZM249.885 41.5861C250.974 41.5861 252.001 41.4936 252.973 41.3112C253.948 41.1236 254.803 40.7929 255.55 40.3073C256.295 39.8293 256.879 39.1783 257.307 38.3723C257.739 37.562 257.953 36.547 257.953 35.3256C257.953 33.3667 257.26 31.8977 255.874 30.9169C254.484 29.9388 252.487 29.4471 249.885 29.4471H239.842V41.5861H249.885Z" fill="white"/>
<path fill-rule="evenodd" clip-rule="evenodd" d="M157.138 58.6631V75.018L174.949 58.6631H178.898L165.21 71.2252L179.539 89.0688H175.765L163.017 73.2313L157.138 78.6361V89.0688H154.221V58.6631H157.138Z" fill="white"/>
<path fill-rule="evenodd" clip-rule="evenodd" d="M206.104 89.0691L205.722 83.5367H205.633C205.12 84.6125 204.482 85.5427 203.723 86.3239C202.966 87.1051 202.129 87.7441 201.209 88.2374C200.298 88.736 199.32 89.0991 198.272 89.3253C197.229 89.5531 196.15 89.6679 195.032 89.6679C192.629 89.6679 190.521 89.2345 188.701 88.3685C186.885 87.5 185.377 86.3436 184.177 84.8969C182.975 83.451 182.072 81.7731 181.472 79.8732C180.871 77.9709 180.57 75.9682 180.57 73.8688C180.57 71.7677 180.871 69.7651 181.472 67.8627C182.072 65.9612 182.975 64.2815 184.177 62.8177C185.377 61.3538 186.885 60.1906 188.701 59.3247C190.521 58.4613 192.629 58.0244 195.032 58.0244C196.634 58.0244 198.151 58.2368 199.583 58.6651C201.011 59.09 202.288 59.7324 203.401 60.5804C204.517 61.4326 205.462 62.4827 206.236 63.7325C207.008 64.9839 207.534 66.4443 207.822 68.1188H204.906C204.821 67.2392 204.524 66.3526 204.022 65.4575C203.521 64.5642 202.85 63.7479 202.009 63.0078C201.163 62.272 200.154 61.6665 198.98 61.1979C197.807 60.7294 196.492 60.4956 195.032 60.4956C193 60.4956 191.257 60.8819 189.797 61.6442C188.338 62.4108 187.142 63.4292 186.213 64.6892C185.283 65.9561 184.597 67.3779 184.153 68.9685C183.707 70.5634 183.487 72.1926 183.487 73.8688C183.487 75.5168 183.707 77.1391 184.153 78.7417C184.597 80.3461 185.283 81.7833 186.213 83.0433C187.142 84.3067 188.338 85.3235 189.797 86.0901C191.257 86.8558 193 87.2387 195.032 87.2387C196.721 87.2387 198.23 86.9612 199.56 86.4079C200.891 85.8554 202.012 85.0793 202.929 84.0875C203.847 83.0947 204.531 81.9161 204.989 80.5525C205.446 79.1923 205.661 77.7019 205.633 76.0822H195.203V73.6145H208.209V89.0691H206.104Z" fill="white"/>
<path fill-rule="evenodd" clip-rule="evenodd" d="M214.434 58.6631L224.393 85.8756H224.477L234.346 58.6631H237.435L226.064 89.0688H222.674L211.342 58.6631H214.434Z" fill="white"/>
<path fill-rule="evenodd" clip-rule="evenodd" d="M200.807 19.7168C200.219 18.7968 199.504 18.0208 198.659 17.3947C197.818 16.7711 196.886 16.2957 195.871 15.9711C194.854 15.6447 193.79 15.4794 192.672 15.4794C190.64 15.4794 188.896 15.8657 187.438 16.6289C185.979 17.3947 184.781 18.4123 183.854 19.6748C182.922 20.9382 182.234 22.3635 181.792 23.955C181.35 25.5456 181.131 27.1765 181.131 28.8527C181.131 30.5007 181.35 32.1256 181.792 33.7316C182.234 35.3325 182.922 36.7664 183.854 38.0289C184.781 39.2906 185.979 40.3073 187.438 41.0757C188.896 41.8414 190.64 42.2252 192.672 42.2252C194.102 42.2252 195.392 41.9673 196.535 41.4568C197.678 40.9463 198.669 40.2508 199.499 39.3694C200.325 38.4906 201.001 37.4619 201.514 36.2841C202.03 35.1081 202.358 33.837 202.498 32.4734H205.418C205.22 34.3449 204.776 36.0332 204.09 37.5407C203.402 39.0465 202.515 40.321 201.429 41.3703C200.34 42.4222 199.062 43.2333 197.589 43.7995C196.113 44.3665 194.475 44.6509 192.672 44.6509C190.272 44.6509 188.158 44.2175 186.345 43.3524C184.523 42.4873 183.016 41.3318 181.817 39.8825C180.613 38.4341 179.713 36.7578 179.111 34.8588C178.509 32.9547 178.211 30.9555 178.211 28.8527C178.211 26.7516 178.509 24.7507 179.111 22.8492C179.713 20.9468 180.613 19.2654 181.817 17.8015C183.016 16.3394 184.523 15.1762 186.345 14.3102C188.158 13.4451 190.272 13.0117 192.672 13.0117C194.132 13.0117 195.556 13.2224 196.943 13.649C198.33 14.0756 199.59 14.7085 200.72 15.5445C201.852 16.3831 202.792 17.4152 203.552 18.6315C204.309 19.8538 204.788 21.2594 204.99 22.8492H202.07C201.814 21.6826 201.392 20.6419 200.807 19.7168Z" fill="white"/>
</svg>
