<svg width="424" height="125" viewBox="0 0 424 125" fill="none" xmlns="http://www.w3.org/2000/svg">
<g clip-path="url(#clip0_2377_1602)">
<path d="M10.0918 17.0068V70.4932H21.2854V51.6157H48.0822V42.2619H21.2854V26.3606H50.287V17.0068H10.0918Z" fill="white"/>
<path d="M69.7913 43.2823H84.0377C90.4825 43.2823 94.8073 39.7959 94.8073 34.6089C94.8073 29.4218 91.4153 26.3606 85.0553 26.3606H69.7913V43.2823ZM105.831 70.4932H92.7721C90.8217 55.9524 89.2105 52.7211 81.0697 52.7211H69.7913V70.4932H58.5977V17.0068H87.4297C99.2169 17.0068 106.086 23.3844 106.086 34.0136C106.086 43.2823 100.319 49.4898 90.3129 51.4456C100.489 52.381 103.033 56.4626 105.831 70.4932Z" fill="white"/>
<path d="M234.218 44.0478C234.218 32.5682 228.113 25.5104 218.022 25.5104C207.93 25.5104 201.825 32.5682 201.825 44.0478C201.825 55.5274 207.93 61.905 218.022 61.905C228.113 61.905 234.218 55.1873 234.218 44.0478ZM190.801 44.0478C190.801 27.3812 201.74 16.2417 218.106 16.2417C234.473 16.2417 245.412 27.3812 245.412 44.0478C245.412 60.7145 234.473 71.2587 218.106 71.2587C201.74 71.2587 190.801 60.4594 190.801 44.0478Z" fill="white"/>
<path d="M253.637 50.1701V17.0068H264.83V49.83C264.83 58.3334 268.986 61.9898 276.872 61.9898C284.758 61.9898 288.914 58.3334 288.914 49.83V17.0068H300.107V50.1701C300.107 64.1157 291.542 71.2585 276.872 71.2585C262.202 71.2585 253.637 64.2007 253.637 50.1701Z" fill="white"/>
<path d="M319.696 43.2823H333.943C340.303 43.2823 344.712 39.7959 344.712 34.6089C344.712 29.4218 341.32 26.3606 334.96 26.3606H319.696V43.2823ZM355.736 70.4932H342.677C340.727 55.9524 339.116 52.7211 330.89 52.7211H319.612V70.4932H308.418V17.0068H337.25C348.952 17.0068 355.906 23.3844 355.906 34.0136C355.906 43.2823 350.14 49.4898 340.133 51.4456C350.394 52.381 352.938 56.4626 355.736 70.4932Z" fill="white"/>
<path d="M381.941 43.1975H415.946V70.5784H408.738L406.025 54.422C403.989 64.7111 396.188 71.3437 386.097 71.3437C372.189 71.3437 361.844 60.0342 361.844 44.473C361.844 27.2961 372.613 16.2417 389.149 16.2417C402.039 16.2417 411.876 22.7043 415.183 33.8437L404.159 39.6261C402.378 29.9322 396.527 25.5954 389.065 25.5954C379.228 25.5954 372.953 32.7383 372.953 43.9628C372.953 55.1873 379.313 61.99 389.234 61.99C397.121 61.99 403.057 57.9934 404.583 51.7859H381.857L381.941 43.1975Z" fill="white"/>
<path d="M125.504 17.0918H114.311V70.5782H125.504V17.0918Z" fill="white"/>
<path d="M168.159 43.7926C180.031 41.8369 182.49 35.7144 182.49 30.8675C182.49 26.7858 180.963 23.0443 178.165 20.4083C175.112 17.5171 170.957 16.0716 166.039 16.3267C163.071 16.4967 158.661 17.177 154.421 21.4287L131.779 43.7926L154.421 66.2416C158.661 70.4083 163.155 71.1736 166.039 71.3437C170.957 71.5988 175.197 70.1532 178.165 67.262C180.963 64.626 182.49 60.8845 182.49 56.7178C182.49 51.8709 180.031 45.7484 168.159 43.7926Z" fill="white"/>
<path d="M37.8203 102.976L39.7707 101.871C40.1099 104.847 42.3147 106.463 44.9435 106.463C46.8091 106.463 47.9115 105.612 47.9115 104.422C47.9115 100.851 38.4139 103.317 38.4139 97.6192C38.4139 95.1532 40.5339 93.5376 43.6715 93.5376C46.9787 93.5376 49.6923 95.4083 50.0315 98.8097L48.0811 99.8301C47.9963 96.939 46.2155 95.3233 43.6715 95.3233C41.8059 95.3233 40.7035 96.1737 40.7035 97.3641C40.7035 101.021 50.2011 98.8097 50.2011 104.167C50.2011 106.633 48.0811 108.163 44.7739 108.163C41.3819 108.248 38.4987 106.463 37.8203 102.976Z" fill="white"/>
<path d="M52.3223 102.722V93.708H54.6967V102.637C54.6967 105.018 56.0535 106.208 58.3431 106.208C60.6327 106.208 61.9895 105.018 61.9895 102.637V93.708H64.2791V102.722C64.2791 106.293 61.9895 108.249 58.3431 108.249C54.6967 108.249 52.3223 106.378 52.3223 102.722Z" fill="white"/>
<path d="M69.6224 93.793H67.248V108.079H69.6224V93.793Z" fill="white"/>
<path d="M71.9121 102.976L73.8625 101.871C74.2017 104.847 76.4065 106.463 79.0353 106.463C80.9009 106.463 82.0033 105.612 82.0033 104.422C82.0033 100.851 72.5057 103.317 72.5057 97.6192C72.5057 95.1532 74.6257 93.5376 77.7633 93.5376C81.0705 93.5376 83.7841 95.4083 84.1233 98.8097L82.1729 99.8301C82.0881 96.939 80.3073 95.3233 77.7633 95.3233C75.8977 95.3233 74.7953 96.1737 74.7953 97.3641C74.7953 101.021 84.2929 98.8097 84.2929 104.167C84.2929 106.633 82.1729 108.163 78.8657 108.163C75.4737 108.248 72.5057 106.463 71.9121 102.976Z" fill="white"/>
<path d="M85.6484 102.976L87.5988 101.871C87.938 104.847 90.1428 106.463 92.7716 106.463C94.6372 106.463 95.7396 105.612 95.7396 104.422C95.7396 100.851 86.242 103.317 86.242 97.6192C86.242 95.1532 88.362 93.5376 91.4996 93.5376C94.8068 93.5376 97.5204 95.4083 97.8596 98.8097L95.9092 99.9151C95.8244 97.024 94.0436 95.4083 91.4996 95.4083C89.634 95.4083 88.5316 96.2587 88.5316 97.4492C88.5316 101.106 98.0292 98.8947 98.0292 104.252C98.0292 106.718 95.9092 108.248 92.602 108.248C89.21 108.248 86.242 106.463 85.6484 102.976Z" fill="white"/>
<path d="M100.404 93.793V108.079H111.174V106.123H102.779V101.871H110.326V99.9154H102.779V95.7488H111.004V93.793H100.404Z" fill="white"/>
<path d="M125.25 102.976L127.2 101.871C127.54 104.847 129.744 106.463 132.373 106.463C134.239 106.463 135.341 105.612 135.341 104.422C135.341 100.851 125.844 103.317 125.844 97.6192C125.844 95.1532 127.964 93.5376 131.101 93.5376C134.408 93.5376 137.122 95.4083 137.461 98.8097L135.511 99.8301C135.426 96.939 133.645 95.3233 131.101 95.3233C129.236 95.3233 128.133 96.1737 128.133 97.3641C128.133 101.021 137.631 98.8097 137.631 104.167C137.631 106.633 135.511 108.163 132.204 108.163C128.812 108.248 125.928 106.463 125.25 102.976Z" fill="white"/>
<path d="M139.156 100.936C139.156 96.5138 142.039 93.5376 146.364 93.5376C150.18 93.5376 152.809 95.8335 153.318 99.575L150.943 100.17C150.774 97.3641 149.078 95.4934 146.279 95.4934C143.311 95.4934 141.446 97.6192 141.446 100.936C141.446 104.252 143.311 106.293 146.279 106.293C148.993 106.293 150.689 104.507 150.943 101.701L153.318 102.211C152.894 105.868 150.265 108.248 146.279 108.248C142.039 108.248 139.156 105.357 139.156 100.936Z" fill="white"/>
<path d="M165.784 93.793V99.8304H158.322V93.793H155.947V108.079H158.322V101.786H165.784V108.079H168.074V93.793H165.784Z" fill="white"/>
<path d="M188.341 93.793L185.543 106.548L182.151 93.793H178.843L175.451 106.463L172.653 93.793H169.939L173.501 108.079H177.317L180.455 96.0889L183.677 108.079H187.493L190.97 93.793H188.341Z" fill="white"/>
<path d="M192.836 93.793V108.079H203.606V106.123H195.21V101.871H202.758V99.9154H195.21V95.7488H203.436V93.793H192.836Z" fill="white"/>
<path d="M208.695 93.793H206.32V108.079H208.695V93.793Z" fill="white"/>
<path d="M211.068 93.793V95.7488H219.718L211.068 106.038V108.079H222.516V106.123H213.867L222.432 95.8338V93.793H211.068Z" fill="white"/>
<path d="M234.896 102.976L236.847 101.871C237.186 104.847 239.391 106.463 242.02 106.463C243.885 106.463 244.988 105.612 244.988 104.422C244.988 100.851 235.49 103.317 235.49 97.6192C235.49 95.1532 237.61 93.5376 240.748 93.5376C244.055 93.5376 246.768 95.4083 247.108 98.8097L245.157 99.9151C245.072 97.024 243.292 95.4083 240.748 95.4083C238.882 95.4083 237.78 96.2587 237.78 97.4492C237.78 101.106 247.277 98.8947 247.277 104.252C247.277 106.718 245.157 108.248 241.85 108.248C238.458 108.248 235.575 106.463 234.896 102.976Z" fill="white"/>
<path d="M266.528 93.793L263.729 106.548L260.337 93.793H257.03L253.638 106.463L250.84 93.793H248.211L251.688 108.079H255.504L258.726 96.0889L261.864 108.079H265.68L269.157 93.793H266.528Z" fill="white"/>
<path d="M273.396 93.793H271.021V108.079H273.396V93.793Z" fill="white"/>
<path d="M275.686 93.793V95.7488H280.604V108.079H282.894V95.7488H287.812V93.793H275.686Z" fill="white"/>
<path d="M289.084 93.793V95.7488H297.818L289.084 106.038V108.079H300.532V106.123H291.967L300.532 95.8338V93.793H289.084Z" fill="white"/>
<path d="M302.992 93.793V108.079H313.677V106.123H305.282V101.871H312.914V99.9154H305.282V95.7488H313.507V93.793H302.992Z" fill="white"/>
<path d="M318.849 101.021H323.004C325.039 101.021 326.311 99.9154 326.311 98.2998C326.311 96.6841 325.294 95.7488 323.343 95.7488H318.764L318.849 101.021ZM328.686 108.079H325.972C325.294 103.912 324.615 102.977 322.411 102.977H318.849V108.079H316.475V93.793H323.937C326.99 93.793 328.771 95.4936 328.771 98.2147C328.771 100.596 327.244 102.211 324.7 102.722C327.075 102.977 327.838 104.167 328.686 108.079Z" fill="white"/>
<path d="M331.398 93.793V108.079H341.659V106.123H333.773V93.793H331.398Z" fill="white"/>
<path d="M349.377 95.3236L352.006 102.722H346.749L349.377 95.3236ZM347.681 93.793L342.424 108.079H344.798L346.07 104.507H352.6L353.872 108.079H356.416L351.158 93.793H347.681Z" fill="white"/>
<path d="M369.39 93.793V106.123L362.098 93.793H358.451V108.079H360.741V95.6637L367.949 108.079H371.68V93.793H369.39Z" fill="white"/>
<path d="M380.075 106.123C383.552 106.123 385.503 104.167 385.503 100.936C385.503 97.7045 383.552 95.7488 380.075 95.7488H377.447V106.123H380.075ZM379.821 93.793C384.994 93.793 387.877 96.5141 387.877 100.936C387.877 105.358 384.909 108.079 379.906 108.079H375.072V93.793H379.821Z" fill="white"/>
</g>
<defs>
<clipPath id="clip0_2377_1602">
<rect width="424" height="125" fill="white"/>
</clipPath>
</defs>
</svg>
