<svg width="32" height="44" viewBox="0 0 32 44" fill="none" xmlns="http://www.w3.org/2000/svg">
<g clip-path="url(#clip0_2377_1695)">
<path d="M29.7304 14.0963L15.7535 3.85444C15.7535 3.85444 14.2418 2.78471 14.5473 0.181885C12.6292 2.74764 10.9209 6.31957 13.6042 9.11569L19.1168 13.1881C19.3081 14.9012 19.1248 17.4511 15.8624 18.5817L9.37472 13.8818C9.37472 13.8818 6.84288 12.3593 7.58144 9.71145C2.66122 16.8712 7.38219 19.2066 7.38219 19.2066L21.3352 29.4987C23.3968 30.4546 22.4112 33.5605 22.4112 33.5605C22.4112 33.5605 27.7618 28.2543 23.3357 24.0151L18.11 20.1784C17.9107 16.7044 20.1981 15.4334 21.4096 14.9701L28.6597 20.2287C28.6597 20.2287 30.3228 21.0866 29.385 24.0177C32.3233 21.3116 33.2479 16.527 29.7357 14.0989L29.7304 14.0963Z" fill="white"/>
<path d="M16.9847 34.6459L10.6325 29.9115C10.6325 29.9115 10.0587 28.7703 11.9901 25.9768C9.92852 28.6882 8.90834 28.765 8.90834 28.765L2.98124 24.3034C2.98124 24.3034 1.62632 23.3237 2.13109 21.2134C-1.11274 25.0157 -0.066003 28.6406 1.40581 29.7103L15.2844 40.0263C16.8785 41.2813 16.1851 43.8153 16.1851 43.8153C16.1851 43.8153 21.5197 38.0324 16.9847 34.6432V34.6459Z" fill="white"/>
</g>
<defs>
<clipPath id="clip0_2377_1695">
<rect width="32" height="43.6364" fill="white" transform="translate(0 0.181885)"/>
</clipPath>
</defs>
</svg>
