<svg viewBox="0 0 326 48" xmlns="http://www.w3.org/2000/svg"><path class="logo_farbig_mov" d="m51.4434 25.2455-3.766 20.9519h-8.044l3.5763-19.8615c.1897-.9625.3197-1.8599.3197-2.8198 0-2.6268-1.7258-4.0381-4.0857-4.0381-2.0428 0-3.7686 1.2182-5.0447 2.7573-2.2351 2.7546-3.3189 6.8552-3.8309 9.8029l-2.5523 14.1592h-7.8516l3.5113-19.8615c.1897-.8973.317-1.8599.317-2.8198 0-2.306-1.3384-4.038-4.148-4.038-2.6172 0-4.5977 2.0503-5.9362 4.1006-1.341 2.0503-2.4274 6.0231-2.8745 8.4595l-2.5522 14.1592h-7.9816l5.87379-33.3164h6.51311v4.0354c2.2976-2.8824 6.3832-4.8701 10.0219-4.8701 2.2351 0 4.0856.2556 5.7438 1.4738 1.7257 1.2808 2.7472 3.1407 2.9369 4.4841 2.5548-3.4589 6.5755-5.9579 10.9185-5.9579 2.9343 0 5.107.8347 6.7652 2.3711 1.7881 1.6017 2.6172 4.0355 2.6172 6.2788 0 1.4738-.1897 3.0755-.447 4.5493zm28.3111 17.5556c-2.4898 2.3712-6.5131 4.2284-10.9808 4.2284-3.4489 0-6.8952-1.0877-9.5124-3.5867-2.9993-2.8199-4.3404-6.7275-4.3404-10.8281 0-5.9605 1.7232-12.1115 6.1285-16.34 2.4899-2.3711 6.3832-4.2284 10.8509-4.2284 3.4489 0 7.0875 1.0903 9.7047 3.5893 2.9993 2.8173 4.278 6.7275 4.278 10.8281 0 5.958-1.7257 12.1089-6.1285 16.3374zm-3.1292-21.2075c-1.1488-1.7295-3.0642-2.5616-5.10709-2.5616-1.91541 0-3.4463.8321-4.595 1.792-3.1292 2.6269-4.0857 8.1387-4.0857 12.1115 0 1.6643.3171 3.2033 1.2112 4.5494 1.1487 1.7294 3.0642 2.5616 5.107 2.5616 1.9155 0 3.4489-.8322 4.5977-1.7947 3.12659-2.6268 4.0857-8.1361 4.0857-12.1089 0-1.6669-.3197-3.2033-1.21381-4.5493zm26.3257 24.6038h-8.4911l-6.4482-33.3164h7.9816l4.1481 23.4483 12.00259-23.4483h8.68l-17.873 33.3164z" fill="#ff665e"/><path class="logo_farbig_etia_claim" d="m243.895 18.3859-.442-1.2834h-2.34401l-.43399 1.2834h-.685l1.90199-5.4159h.79201l1.90999 5.4159zm-1.62201-4.7358-.952 2.8107h1.911zm5.461 4.7358-.05299-.5879c-.19701.4425-.69299.6795-1.142.6795-.87401 0-1.31599-.5272-1.31599-1.4208v-2.5359h.646v2.4443c0 .5805.21399.9245.823.9245.259 0 .47099-.1145.63899-.2903.244-.2524.319-.6725.319-1.0698v-2.0087h.647v3.8651h-.563zm4.52701-.336c-.297.3056-.754.4351-1.257.4351-.479 0-.92101-.1145-1.24699-.4351-.23601-.229-.373-.5576-.373-.8862h.646c.008.2674.13.466.312.6034.175.1299.44901.1757.69301.1757.267 0 .50999-.0458.70799-.2141.106-.0836.19-.2444.19-.4196 0-.2907-.205-.4968-.601-.5501l-.868-.1145c-.578-.0921-.94301-.451-.94301-1.039 0-.2982.144-.5804.319-.7562.252-.2598.655-.4276 1.13501-.4276.50899 0 .965.1603 1.224.4889.168.2061.274.4276.274.7407h-.64601c-.008-.1986-.10699-.3818-.22099-.4814-.16-.1448-.373-.2061-.631-.2061-.153 0-.26701 0-.45001.0762-.243.0996-.38699.3057-.38699.5197 0 .3206.19701.458.51601.5038.21399.0309.51799.0613.92899.13.548.0915.981.4888.981 1.0693 0 .3365-.121.5959-.30299.7871zm2.60201.3892c-.83 0-1.05801-.5266-1.05801-1.0464v-2.3144h-.74599v-.5575h.74599v-.9852l.64601-.1529v1.1381h1.142v.5575h-1.142v2.2383c0 .3743.15999.5272.51799.5272.274 0 .662-.0687.662-.0687v.5575c-.175.0459-.41.1065-.76799.1065zm4.50399 0c-.34302 0-.55499-.2593-.55499-.5879h-.01602c-.22098.3893-.69998.6337-1.241.6337-.883 0-1.32399-.5953-1.32399-1.1912 0-.4964.31999-1.146 1.37001-1.2068l1.172-.0692v-.2822c0-.1912-.02301-.4282-.198-.5885-.13-.1219-.32001-.1986-.63202-.1986-.35001 0-.57001.0996-.69998.2295-.121.122-.19.2748-.19.466h-.63101c.007-.3515.13699-.6039.33401-.81.259-.2748.715-.4122 1.18698-.4122.746 0 1.173.3206 1.35602.7408.07498.1757.11298.3743.11298.5959v1.8713c0 .2061.08401.2599.21301.2599.069 0 .168-.0229.168-.0229v.4809c-.13699.0687-.26599.0915-.42599.0915zm-.59399-1.9171-1.035.0613c-.388.0229-.845.2061-.845.6949 0 .344.21298.6646.76199.6646.29599 0 .586-.099.79001-.3131.22998-.237.328-.5576.328-.8787zm4.457 1.8639-.05301-.5879c-.19699.4425-.69299.6795-1.142.6795-.87399 0-1.315-.5272-1.315-1.4208v-2.5359h.646v2.4443c0 .5805.21301.9245.82199.9245.259 0 .47101-.1145.63901-.2903.24402-.2524.319-.6726.319-1.0698v-2.0087h.64801v3.8651zm4.52698-.336c-.297.3056-.75299.435-1.25598.435-.48001 0-.92102-.1144-1.24802-.435-.23599-.229-.37299-.5576-.37299-.8862h.647c.00699.2674.129.466.31198.6034.17502.1299.448.1757.69302.1757.26599 0 .50897-.0458.707-.2141.10599-.0836.18997-.2444.18997-.4196 0-.2908-.20398-.4969-.59998-.5501l-.86801-.1145c-.57901-.0921-.944-.451-.944-1.039 0-.2982.14499-.5804.32001-.7562.25101-.2598.65399-.4276 1.134-.4276.509 0 .966.1603 1.22501.4889.16699.2061.27298.4276.27298.7407h-.646c-.00699-.1986-.10699-.3818-.22101-.4814-.16-.1448-.37299-.2061-.63098-.2061-.15302 0-.267 0-.45001.0762-.24298.0996-.38699.3057-.38699.5197 0 .3206.19699.458.517.5038.21301.0309.517.0612.92801.1299.54898.0916.98199.4889.98199 1.0694 0 .3365-.121.5959-.30402.7871zm3.95502.0154c-.27402.2673-.63901.4196-1.11099.4196-.69202 0-1.13303-.3206-1.40701-.7253-.20599-.3057-.32001-.7258-.32001-1.3063s.11401-1.0006.32001-1.3063c.27399-.4047.707-.7253 1.39999-.7253.45599 0 .83002.1523 1.09601.4122.259.2518.427.573.45599.9931h-.655c-.02899-.2673-.129-.4585-.27301-.6033-.15198-.1454-.37299-.237-.62399-.237-.297 0-.50198.107-.66998.2519-.30402.2599-.388.7413-.388 1.2147s.08398.9548.388 1.2147c.168.1448.37299.2519.66998.2519.26599 0 .50201-.0991.65399-.2599.13702-.1449.229-.3206.259-.5725h.655c-.03098.4122-.19098.7254-.44998.9778zm3.91799.3206v-2.4518c0-.5805-.237-.9245-.845-.9245-.37302 0-.67001.2445-.83701.5959-.129.2828-.13699.6875-.13699.9852v1.7952h-.647v-5.5149h.647v2.1615c.228-.3972.69199-.6108 1.12601-.6108.87598 0 1.33899.5267 1.33899 1.4208v2.5434zm6.19901 0-.05301-.5879c-.19699.4425-.69299.6795-1.14099.6795-.875 0-1.31601-.5272-1.31601-1.4208v-2.5359h.646v2.4443c0 .5804.21301.9245.82199.9245.259 0 .47202-.1145.63901-.2903.24402-.2524.32001-.6726.32001-1.0698v-2.0088h.647v3.8652zm4.444 0v-2.4518c0-.5805-.237-.9245-.845-.9245-.37402 0-.67102.2445-.83701.5959-.13.2828-.13699.6875-.13699.9852v1.7952h-.64801v-3.8651h.564l.05301.5804c.19699-.443.73001-.6795 1.164-.6795.87601 0 1.332.5267 1.332 1.4208v2.5434zm4.52399 0-.04498-.5043c-.22101.3898-.71503.6033-1.14902.6033-.47198 0-.83701-.1603-1.08798-.4196-.36502-.3744-.556-.9628-.556-1.6045 0-.6646.198-1.2754.58698-1.6498.25-.237.608-.3893 1.05701-.3893.41901 0 .91299.1986 1.11899.5496v-2.1003h.64603v5.5149h-.57101zm-.46299-3.1622c-.15302-.1379-.34302-.2524-.62402-.2524-.86099 0-1.08899.7716-1.08899 1.482s.228 1.4821 1.08899 1.4821c.28101 0 .47101-.1145.62402-.2525.319-.2822.42599-.7482.42599-1.2296s-.10699-.9474-.42599-1.2296zm8.779 3.1622v-4.5681l-1.67401 4.4919h-.53198l-1.67502-4.5297v4.6059h-.647v-5.4159h.974l1.629 4.4078 1.621-4.4078h.95102v5.4159h-.647zm4.69198-.3515c-.28101.2753-.677.4505-1.164.4505s-.883-.1752-1.164-.4505c-.41898-.4122-.54898-.9697-.54898-1.5811 0-.6108.13-1.1689.54898-1.5811.28101-.2753.677-.4505 1.164-.4505s.883.1752 1.164.4505c.41901.4122.54901.9703.54901 1.5811 0 .6114-.13 1.1689-.54901 1.5811zm-.47098-2.7803c-.16-.1603-.388-.2748-.69302-.2748-.30399 0-.53299.1145-.69299.2748-.27399.2827-.35699.7487-.35699 1.1992s.08301.9165.35699 1.1993c.16.1603.38901.2748.69299.2748.30502 0 .53302-.1145.69302-.2748.27399-.2828.35797-.7488.35797-1.1993s-.08398-.9165-.35797-1.1992zm4.99 2.8112c-.25101.2593-.616.4196-1.08801.4196-.43399 0-.92798-.2135-1.14899-.6033l-.04602.5043h-.57098v-5.5149h.64801v2.1003c.20398-.351.69897-.5496 1.11798-.5496.44901 0 .80701.1523 1.05801.3893.388.3744.586.9852.586 1.6498 0 .6417-.19 1.2301-.556 1.6045zm-1.19501-3.094c-.28101 0-.47101.1145-.62399.2524-.319.2822-.42599.7482-.42599 1.2296s.10699.9474.42599 1.2296c.15298.138.34299.2525.62399.2525.86099 0 1.08899-.7717 1.08899-1.4821s-.228-1.482-1.08899-1.482zm2.82199-1.3367v-.7636h.75302v.7636zm.04501 4.7513v-3.8651h.66199v3.8651zm2.86099.0458c-.56299 0-.80701-.3361-.80701-.9474v-4.6133h.647v4.5755c0 .2593.08401.3973.35001.3973.21301 0 .26599-.008.26599-.008v.5501s-.14398.0458-.45599.0458zm1.38401-4.7971v-.7636h.75299v.7636zm.04599 4.7513v-3.8651h.66202v3.8651zm3.302.0532c-.82999 0-1.05798-.5266-1.05798-1.0464v-2.3144h-.746v-.5575h.746v-.9852l.646-.1529v1.1381h1.142v.5575h-1.142v2.2383c0 .3743.16.5272.51801.5272.27399 0 .66199-.0687.66199-.0687v.5575c-.17499.0458-.41098.1065-.76801.1065zm4.504 0c-.34299 0-.55499-.2593-.55499-.5879h-.01599c-.22101.3893-.70001.6337-1.241.6337-.883 0-1.32401-.5953-1.32401-1.1912 0-.4964.32001-1.1461 1.37-1.2068l1.172-.0692v-.2822c0-.1912-.02298-.4282-.198-.5885-.13-.1219-.32001-.1986-.63199-.1986-.35001 0-.57001.0996-.70001.2295-.121.1219-.19.2748-.19.466h-.63098c.00699-.3515.13699-.6039.33398-.81.259-.2748.715-.4122 1.18701-.4122.74698 0 1.173.3206 1.35599.7408.07501.1757.11301.3743.11301.5959v1.8713c0 .2061.08398.2599.21301.2599.069 0 .168-.0229.168-.0229v.4808c-.13702.0687-.26602.0916-.42603.0916zm-.594-1.9171-1.035.0613c-.388.0229-.845.2061-.845.6949 0 .344.21301.6646.76202.6646.29599 0 .586-.099.78998-.3131.23001-.237.328-.5576.328-.8787zm-1.811-2.7345v-.703h.70001v.703zm1.33902 0v-.703h.69998v.703zm3.70498 4.6516c-.82999 0-1.05798-.5266-1.05798-1.0464v-2.3144h-.746v-.5575h.746v-.9852l.646-.1529v1.1381h1.142v.5575h-1.142v2.2383c0 .3743.16.5272.51801.5272.27399 0 .66199-.0687.66199-.0687v.5575c-.17499.0458-.41101.1065-.76801.1065zm-84.60299 9.2171v-5.4158h3.608v.6262h-2.931v1.6503h2.573v.6417h-2.573v1.8714h2.931v.6262zm7.20399-.3206c-.27399.2674-.63899.4197-1.11099.4197-.692 0-1.133-.3206-1.407-.7254-.20601-.3056-.32001-.7258-.32001-1.3063 0-.5804.114-1.0006.32001-1.3063.274-.4047.707-.7253 1.39999-.7253.45601 0 .83.1523 1.09601.4122.259.2519.42599.573.45599.9932h-.655c-.02901-.2674-.129-.4585-.27299-.6034-.15201-.1454-.373-.237-.62401-.237-.297 0-.502.1071-.67.2519-.304.2599-.388.7413-.388 1.2147s.084.9548.388 1.2147c.168.1449.373.2519.67.2519.26601 0 .502-.099.65401-.2599.13699-.1448.229-.3206.259-.5724h.655c-.03101.4121-.19101.7253-.45001.9777zm3.91802.3206v-2.4518c0-.5804-.237-.9244-.845-.9244-.373 0-.67001.2444-.83701.5959-.129.2827-.13699.6875-.13699.9852v1.7951h-.647v-5.5149h.647v2.1616c.228-.3973.69199-.6108 1.12599-.6108.87601 0 1.339.5266 1.339 1.4208v2.5433h-.646zm4.79998.0533c-.342 0-.55499-.2594-.55499-.588h-.01601c-.22099.3893-.7.6338-1.241.6338-.883 0-1.32401-.5954-1.32401-1.1913 0-.4963.32001-1.146 1.37001-1.2067l1.17299-.0693v-.2822c0-.1912-.02399-.4282-.19899-.5885-.129-.1219-.319-.1986-.631-.1986-.35101 0-.571.0996-.701.2295-.121.122-.19.2748-.19.466h-.631c.007-.3515.13699-.6039.334-.81.259-.2748.715-.4122 1.188-.4122.74599 0 1.172.3206 1.355.7408.075.1757.11299.3743.11299.5959v1.8713c0 .2061.084.2599.214.2599.069 0 .16701-.0229.16701-.0229v.4809c-.13701.0687-.26601.0916-.42601.0916zm-.593-1.9172-1.036.0613c-.388.0229-.845.2061-.845.6949 0 .344.213.6646.76201.6646.29599 0 .586-.099.791-.3131.22899-.237.32799-.5576.32799-.8787zm4.511 1.8639v-2.4518c0-.5804-.237-.9244-.845-.9244-.37399 0-.67099.2444-.83701.5959-.12997.2827-.13699.6875-.13699.9851v1.7952h-.64798v-3.8651h.564l.05298.5805c.19702-.4431.73001-.6796 1.164-.6796.875 0 1.332.5267 1.332 1.4208v2.5434zm4.944 1.3521c-.37399.3664-1.013.4505-1.55301.4505-.50998 0-1.08899-.0761-1.461-.4505-.15997-.1603-.27399-.3818-.27399-.6875 0-.4047.24301-.7029.548-.8558-.259-.099-.44901-.3509-.44901-.6491 0-.3435.22-.6108.509-.7482-.28101-.2525-.44101-.6343-.44101-1.0012 0-.4196.14502-.7104.366-.9394.26602-.2748.63101-.4351 1.14102-.4351.366 0 .647.0836.88199.229.13-.344.427-.5426.79199-.5426.06201 0 .13.008.19101.0154v.5272c-.03799-.0074-.09201-.0074-.14499-.0074-.25101 0-.43402.1373-.47101.3509.159.2066.25.4585.25.802 0 .3669-.13699.6875-.35001.9245-.25101.2747-.63901.4585-1.14899.4585-.25803 0-.40402-.0229-.647-.1071-.14401.0458-.31201.1603-.328.3435-.022.336.336.3744.57901.3824.25098.0074.76199 0 .76199 0 .45599 0 .965.0916 1.26999.4047.18201.1832.30402.4351.30402.7562 0 .336-.14401.5959-.32602.7791zm-1.51498-1.3904h-.70001c-.259.0841-.487.3131-.487.6113 0 .1757.06.3057.159.4047.25101.2519.69299.2674 1.02802.2674.327 0 .80698-.0304 1.04999-.2748.10001-.0996.16-.2296.16-.3973 0-.6572-.72299-.6113-1.20999-.6113zm-.10702-3.3992c-.52499 0-.875.3589-.875.8478s.328.8632.875.8632c.52502 0 .87601-.3743.87601-.8632s-.327-.8478-.87601-.8478zm5.828 1.719h-2.72498c0 .351.13699.7333.37299.9698.17599.1757.41101.2753.70801.2753.30499 0 .55499-.0842.716-.2524.10599-.1066.17499-.2136.228-.4202h.63098c-.05298.3823-.28098.7413-.59299.9548-.27399.1837-.617.2902-.98199.2902-.54001 0-.98102-.2289-1.27802-.5804-.31998-.3744-.47998-.8862-.47998-1.4357 0-.466.08398-.8787.297-1.2376.27399-.466.784-.8095 1.45398-.8095.49402 0 .89001.1907 1.17102.4963.31198.3435.495.8404.487 1.3596zm-.88999-1.3446c-.16101-.2136-.41901-.3515-.76102-.3515-.69998 0-1.043.573-1.05798 1.1386h2.05399c0-.2903-.08398-.581-.23499-.7871zm4.534 2.7271c-.297.3057-.75299.4351-1.25601.4351-.47998 0-.92099-.1145-1.24799-.4351-.23599-.229-.37302-.5576-.37302-.8862h.647c.00702.2674.129.466.31201.6034.17499.1299.448.1757.69199.1757.267 0 .51001-.0458.70801-.214.10602-.0836.19-.2445.19-.4197 0-.2907-.20499-.4968-.60001-.5501l-.86798-.1145c-.57901-.0921-.944-.451-.944-1.0389 0-.2983.14398-.5805.31998-.7562.25101-.2599.65402-.4277 1.134-.4277.509 0 .966.1603 1.22501.4889.16699.2061.27301.4276.27301.7407h-.646c-.00702-.1986-.10703-.3818-.22101-.4814-.16-.1448-.37302-.2061-.63101-.2061-.15298 0-.26599 0-.44998.0762-.24301.0996-.38699.3057-.38699.5198 0 .3205.19699.4579.517.5037.21298.0309.517.0613.92798.13.54901.0916.98199.4888.98199 1.0693 0 .3366-.12097.5959-.30399.7871zm6.26099-1.3825h-2.72498c0 .351.13699.7333.37299.9698.17599.1757.41101.2753.70801.2753.30499 0 .55499-.0842.716-.2524.10599-.1065.17499-.2136.228-.4202h.63098c-.05298.3824-.28098.7413-.59299.9548-.27399.1837-.617.2903-.98199.2903-.54001 0-.98102-.229-1.27802-.5805-.31998-.3744-.47998-.8861-.47998-1.4357 0-.466.08398-.8787.297-1.2376.27399-.466.784-.8095 1.45398-.8095.49402 0 .89001.1907 1.17102.4963.31198.3435.495.8404.487 1.3596zm-.88999-1.3446c-.16101-.2136-.41901-.3515-.76102-.3515-.69998 0-1.043.573-1.05798 1.1386h2.05399c0-.2903-.08398-.581-.23499-.7871zm3.17301 3.1164c-.83002 0-1.05801-.5267-1.05801-1.0465v-2.3143h-.746v-.5576h.746v-.9852l.646-.1528v1.138h1.142v.5576h-1.142v2.2382c0 .3744.16.5272.51801.5272.27402 0 .66202-.0687.66202-.0687v.5576c-.17502.0458-.41101.1065-.76801.1065zm8.134-.0533v-2.4597c0-.5422-.17599-.9165-.785-.9165-.24402 0-.43402.0995-.58499.2598-.259.2674-.328.6567-.328 1.0619v2.0545h-.647v-2.4598c0-.5421-.16-.9164-.776-.9164-.27402 0-.495.1373-.655.344-.19.2444-.258.6566-.258.9777v2.0545h-.647v-3.8651h.56299l.061.5501c.20599-.4356.647-.6492 1.07999-.6492.57101 0 .983.2594 1.14902.7333.20599-.4814.70099-.7333 1.18799-.7333.875 0 1.28601.5651 1.28601 1.4208v2.5434h-.646zm4.57599-.3514c-.28101.2753-.677.4505-1.164.4505s-.883-.1752-1.164-.4505c-.41901-.4122-.548-.9698-.548-1.5811 0-.6109.129-1.1689.548-1.5811.28101-.2753.677-.4505 1.164-.4505s.883.1752 1.164.4505c.42001.4122.54901.9702.54901 1.5811 0 .6113-.129 1.1689-.54901 1.5811zm-.47101-2.7804c-.16-.1603-.388-.2748-.69299-.2748-.30399 0-.53198.1145-.69299.2748-.27301.2828-.35699.7487-.35699 1.1993 0 .4505.08398.9165.35699 1.1992.16101.1603.38901.2748.69299.2748.30499 0 .53299-.1145.69299-.2748.27402-.2827.358-.7487.358-1.1992 0-.4506-.08398-.9165-.358-1.1993zm4.99002 2.8112c-.25101.2594-.616.4197-1.08801.4197-.43399 0-.92801-.2136-1.14899-.6034l-.04602.5043h-.57098v-5.5149h.64798v2.1003c.20401-.3509.69901-.5495 1.11801-.5495.44901 0 .80701.1523 1.05801.3892.38898.3744.586.9852.586 1.6498 0 .6417-.19 1.2302-.556 1.6045zm-1.19501-3.094c-.28101 0-.47101.1145-.62399.2524-.319.2823-.42603.7483-.42603 1.2297s.10703.9473.42603 1.2296c.15298.1379.34299.2524.62399.2524.86099 0 1.08899-.7716 1.08899-1.482s-.228-1.4821-1.08899-1.4821zm2.82199-1.3366v-.7637h.75299v.7637zm.04502 4.7512v-3.8651h.66199v3.8651zm2.86099.0458c-.56299 0-.80701-.336-.80701-.9474v-4.6133h.647v4.5755c0 .2594.08401.3973.35001.3973.21298 0 .267-.008.267-.008v.5501s-.14499.0458-.457.0458zm1.384-4.797v-.7637h.75299v.7637zm.04599 4.7512v-3.8651h.66202v3.8651zm3.302.0533c-.82999 0-1.05798-.5267-1.05798-1.0464v-2.3144h-.746v-.5576h.746v-.9852l.646-.1528v1.138h1.142v.5576h-1.142v2.2382c0 .3744.16.5272.51801.5272.27399 0 .66199-.0687.66199-.0687v.5576c-.17499.0458-.41.1065-.76801.1065zm4.724-1.7718h-2.72501c0 .351.13702.7333.37402.9698.17499.1757.41.2753.70798.2753.30402 0 .55502-.0841.715-.2524.10602-.1065.17502-.2136.22803-.4202h.63098c-.05298.3824-.28101.7413-.59299.9548-.27402.1838-.616.2903-.98102.2903-.54099 0-.98199-.229-1.27899-.5805-.32001-.3744-.48001-.8861-.48001-1.4357 0-.466.08401-.8787.29703-1.2376.27399-.466.78497-.8095 1.45398-.8095.495 0 .89001.1907 1.172.4964.31201.3434.49402.8403.487 1.3595zm-.88998-1.3446c-.16-.2135-.41901-.3515-.76102-.3515-.69998 0-1.043.573-1.05798 1.1386h2.05499c0-.2902-.08401-.581-.23599-.7871zm-1.32401-1.1609-.229-.3589 1.29401-.94.34299.5427-1.40799.7562zm-66.66101 13.0513c-.37199.3674-.95.5421-1.52899.5421-.65401 0-1.18001-.1832-1.545-.5187-.343-.3206-.578-.7871-.578-1.2983h.70799c0 .3206.15901.6412.38.8553.244.2364.65401.3355 1.035.3355.411 0 .761-.0831 1.004-.3132.168-.1523.27499-.3429.27499-.6337 0-.4196-.26599-.7711-.90599-.8712l-.85201-.1289c-.80699-.1225-1.439-.573-1.439-1.4367 0-.4048.183-.7946.472-1.0694.37199-.3514.85199-.5346 1.41499-.5346.526 0 1.04401.1757 1.401.5192.327.3137.502.7035.517 1.1614h-.70799c-.015-.2673-.11301-.5037-.26601-.6795-.205-.2375-.53299-.3749-.951-.3749-.38799 0-.72299.1071-.959.3749-.13699.1598-.22099.343-.22099.588 0 .4888.403.7104.80701.7636.304.0383.601.0916.89799.1374.89799.1299 1.5.6795 1.5 1.5358 0 .4505-.19099.786-.45801 1.0459zm4.08501.1225c-.274.2673-.63901.4196-1.11101.4196-.69199 0-1.133-.3206-1.407-.7253-.20599-.3057-.321-.7253-.321-1.3058 0-.5804.11501-1.0011.321-1.3068.274-.4047.70601-.7253 1.399-.7253.457 0 .83.1523 1.097.4122.259.2524.42601.573.45601.9937h-.655c-.03001-.2674-.12901-.4591-.274-.6039-.151-.1449-.37201-.2365-.62401-.2365-.297 0-.502.1065-.66899.2514-.30501.2599-.38901.7413-.38901 1.2152 0 .4729.084.9543.38901 1.2142.16699.1448.37199.2524.66899.2524.267 0 .502-.0991.655-.2599.13701-.1448.228-.3206.259-.573h.655c-.03099.4122-.19099.7254-.45.9778zm4.30499.3738c-.342 0-.55499-.2588-.55499-.5879h-.01601c-.22099.3898-.69899.6337-1.23999.6337-.88301 0-1.325-.5954-1.325-1.1907 0-.4964.321-1.146 1.37-1.2068l1.173-.0692v-.2822c0-.1917-.02301-.4282-.19901-.589-.129-.1214-.319-.1981-.631-.1981-.35001 0-.571.099-.7.229-.121.1224-.19.2748-.19.4665h-.632c.008-.3515.13699-.6039.33499-.8106.259-.2747.71501-.4121 1.18701-.4121.746 0 1.17299.3205 1.355.7412.076.1758.114.3739.114.5954v1.8713c0 .2067.084.2599.213.2599.069 0 .168-.0223.168-.0223v.4803c-.13699.0692-.267.0916-.427.0916zm-.59298-1.9171-1.03601.0618c-.38699.0223-.845.2055-.845.6944 0 .344.214.6646.76201.6646.29599 0 .586-.0991.791-.3131.229-.2365.328-.5571.328-.8787zm6.72599 1.8638v-2.4592c0-.5421-.17599-.917-.785-.917-.24399 0-.43399.1001-.58499.2599-.259.2673-.328.6571-.328 1.0618v2.0545h-.647v-2.4592c0-.5421-.16-.917-.776-.917-.274 0-.495.1374-.655.344-.19.2449-.258.6571-.258.9777v2.0545h-.647v-3.8651h.56299l.061.5506c.20601-.4356.647-.6496 1.08-.6496.571 0 .983.2598 1.149.7338.20599-.4814.70099-.7338 1.18799-.7338.875 0 1.28601.5655 1.28601 1.4208v2.5433zm4.85001-.3205c-.25.2598-.61502.4196-1.08701.4196-.435 0-.92902-.213-1.14999-.6028l-.04501.5037h-.57098v-5.5149h.64697v2.1003c.20502-.3504.69901-.5495 1.11902-.5495.448 0 .806.1523 1.05701.3898.38898.3738.586.9852.586 1.6498 0 .6411-.19 1.2301-.556 1.604zm-1.19501-3.0941c-.28101 0-.47101.1151-.62399.2525-.319.2822-.42502.7487-.42502 1.2301s.10602.9469.42502 1.2291c.15298.1385.34299.2524.62399.2524.86099 0 1.08899-.7711 1.08899-1.4815s-.228-1.4826-1.08899-1.4826zm2.82199-1.3366v-.7637h.75302v.7637zm.04602 4.7512v-3.8651h.66199v3.8651zm6.92399-1.7179h-2.72501c0 .3504.13702.7328.37302.9692.17499.1757.41098.2758.70801.2758.30499 0 .55499-.0841.715-.2524.10599-.1065.17499-.214.228-.4207h.63199c-.05301.3824-.28101.7413-.59299.9554-.27402.1832-.617.2897-.98199.2897-.54001 0-.98203-.229-1.27902-.5805-.319-.3738-.479-.8861-.479-1.4357 0-.4654.08301-.8787.29703-1.2376.27399-.4654.784-.8094 1.45398-.8094.49402 0 .89001.1906 1.17102.4963.31198.344.495.8403.487 1.3601l-.00702.3898zm-.891-1.3452c-.16-.213-.41901-.3515-.76001-.3515-.70099 0-1.04401.5731-1.05798 1.1386h2.05399c0-.2897-.08398-.5805-.23599-.7871zm8.41599 3.0631v-2.4592c0-.5421-.17599-.917-.785-.917-.24399 0-.43399.1001-.58499.2599-.259.2673-.328.6571-.328 1.0618v2.0545h-.647v-2.4592c0-.5421-.15997-.917-.776-.917-.27399 0-.495.1374-.655.344-.19.2449-.258.6571-.258.9777v2.0545h-.647v-3.8651h.56302l.061.5506c.20599-.4356.64697-.6496 1.07999-.6496.57101 0 .983.2598 1.14899.7338.20602-.4814.70102-.7338 1.18802-.7338.875 0 1.28598.5655 1.28598 1.4208v2.5433h-.646zm4.57602-.3514c-.28101.2758-.677.4505-1.164.4505s-.883-.1747-1.164-.4505c-.41901-.4122-.548-.9692-.548-1.5806 0-.6113.129-1.1694.548-1.5816.28101-.2748.677-.4505 1.164-.4505s.883.1757 1.164.4505c.41998.4122.54898.9703.54898 1.5816 0 .6114-.129 1.1684-.54898 1.5806zm-.47101-2.7798c-.16-.1609-.388-.2748-.69299-.2748-.30402 0-.53201.1139-.69299.2748-.27301.2822-.35703.7487-.35703 1.1992s.08401.916.35703 1.1993c.16098.1597.38898.2748.69299.2748.30499 0 .53299-.115.69299-.2748.27399-.2833.358-.7488.358-1.1993s-.08401-.917-.358-1.1992zm4.98999 2.8107c-.25098.2598-.616.4196-1.08798.4196-.43402 0-.92801-.213-1.14902-.6028l-.04599.5037h-.57101v-5.5149h.64801v2.1003c.20502-.3504.69901-.5495 1.11801-.5495.44901 0 .80701.1523 1.05798.3898.38901.3738.586.9852.586 1.6498 0 .6411-.19 1.2301-.556 1.604zm-1.19498-3.0941c-.28101 0-.47101.1151-.62402.2525-.319.2822-.42499.7487-.42499 1.2301s.10599.9469.42499 1.2291c.15302.1385.34302.2524.62402.2524.86099 0 1.08899-.7711 1.08899-1.4815s-.228-1.4826-1.08899-1.4826zm2.82199-1.3366v-.7637h.75299v.7637zm.04499 4.7512v-3.8651h.66202v3.8651zm2.86102.0458c-.56302 0-.80701-.3354-.80701-.9468v-4.6139h.647v4.5756c0 .2598.08398.3972.35001.3972.21298 0 .267-.0074.267-.0074v.5495s-.14502.0458-.457.0458zm1.384-4.797v-.7636h.75299v.7636zm.04599 4.7513v-3.8652h.66199v3.8652zm3.302.0532c-.83002 0-1.05801-.5261-1.05801-1.0459v-2.3144h-.746v-.5581h.746v-.9852l.646-.1528v1.138h1.142v.5581h-1.142v2.2377c0 .3749.16101.5272.51801.5272.27402 0 .66202-.0681.66202-.0681v.557c-.17502.0458-.41.1065-.76801.1065zm4.504 0c-.34201 0-.55499-.2588-.55499-.5879h-.01602c-.22098.3898-.69998.6337-1.241.6337-.883 0-1.32401-.5954-1.32401-1.1907 0-.4964.32001-1.146 1.37003-1.2068l1.172-.0692v-.2822c0-.1917-.02301-.4282-.198-.589-.129-.1214-.319-.1981-.63101-.1981-.35101 0-.57098.099-.70099.229-.121.1224-.19.2748-.19.4665h-.63101c.00702-.3515.13699-.6039.33401-.8106.259-.2747.715-.4121 1.18799-.4121.746 0 1.172.3205 1.35501.7412.07498.1758.11298.3739.11298.5954v1.8713c0 .2067.08401.2599.21402.2599.069 0 .16699-.0223.16699-.0223v.4803c-.13699.0692-.26599.0916-.42599.0916zm-.59399-1.9171-1.035.0618c-.388.0223-.845.2055-.845.6944 0 .344.21298.6646.76199.6646.29599 0 .586-.0991.79102-.3131.22897-.2365.327-.5571.327-.8787v-.229zm-1.621-3.1318.34299-.5422 1.293.9474-.228.359zm-59.65001 14.266v-5.4159h3.608v.6263h-2.931v1.6508h2.573v.6412h-2.573v1.8713h2.931v.6263zm6.877 0-1.01199-1.5199-1.004 1.5199h-.73801l1.308-1.9704-1.29399-1.8947h.761l1.00499 1.4591.96701-1.4591h.74599l-1.302 1.8947 1.34001 1.9704zm4.07701-.3206c-.27301.2673-.638.4196-1.11101.4196-.692 0-1.133-.3206-1.407-.7253-.20601-.3057-.32001-.7253-.32001-1.3058 0-.5804.114-1.0011.32001-1.3068.274-.4047.707-.7253 1.39999-.7253.45601 0 .83.1523 1.09601.4122.259.2524.427.573.45599.9937h-.65399c-.03-.2674-.13-.4591-.274-.6039-.15201-.1449-.373-.2365-.62401-.2365-.297 0-.502.1066-.67.2514-.304.2599-.388.7413-.388 1.2152 0 .4729.084.9543.388 1.2142.168.1449.373.2524.67.2524.26601 0 .502-.099.655-.2599.13701-.1448.22801-.3205.259-.573h.65401c-.03.4122-.19101.7254-.45.9778zm3.918.3206v-2.4518c0-.5805-.23601-.9245-.84401-.9245-.37399 0-.67099.245-.838.5965-.129.2822-.13699.6869-.13699.9852v1.7946h-.647v-5.5149h.647v2.1621c.228-.3973.692-.6114 1.12599-.6114.87601 0 1.339.5272 1.339 1.4208v2.5434h-.646zm4.8.0532c-.34201 0-.55502-.2588-.55502-.5879h-.01599c-.22101.3898-.69901.6337-1.241.6337-.88199 0-1.32401-.5954-1.32401-1.1907 0-.4963.32101-1.146 1.37-1.2067l1.173-.0693v-.2822c0-.1917-.02399-.4282-.19901-.589-.129-.1214-.319-.1981-.63098-.1981-.35001 0-.57101.0991-.70102.229-.12.1225-.189.2748-.189.4665h-.63199c.008-.3515.13699-.6039.33398-.8105.259-.2748.716-.4122 1.18802-.4122.746 0 1.172.3206 1.35498.7413.07501.1757.11401.3738.11401.5954v1.8713c0 .2066.08301.2598.21301.2598.069 0 .168-.0223.168-.0223v.4803c-.13702.0693-.267.0916-.427.0916zm-.59302-1.9171-1.03598.0618c-.38702.0223-.845.2055-.845.6944 0 .344.21399.6646.76199.6646.29599 0 .586-.099.79099-.3131.229-.2365.328-.5571.328-.8787zm4.51102 1.8639v-2.4518c0-.5805-.237-.9245-.845-.9245-.37302 0-.67102.245-.83701.5965-.13.2822-.13699.6869-.13699.9851v1.7947h-.647v-3.8651h.56299l.05301.5804c.19699-.4431.73001-.6795 1.164-.6795.87601 0 1.332.5272 1.332 1.4208v2.5434zm4.944 1.3526c-.37402.3664-1.013.4505-1.55301.4505-.51001 0-1.08899-.0767-1.461-.4505-.16-.1608-.27399-.3824-.27399-.688 0-.4048.24298-.703.54797-.8553-.259-.099-.44897-.3515-.44897-.6497 0-.3429.22098-.6103.50897-.7477-.28098-.2524-.44098-.6347-.44098-1.0011 0-.4197.14499-.7104.366-.9394.26599-.2748.63098-.4356 1.14099-.4356.366 0 .647.0841.883.229.129-.344.42599-.5421.79102-.5421.06198 0 .13.0074.19098.0149v.5272c-.03799-.0075-.09198-.0075-.14499-.0075-.25101 0-.43399.1374-.47101.3515.159.2066.25.458.25.802 0 .3664-.13699.687-.34998.9245-.25.2748-.63901.4579-1.14902.4579-.258 0-.40399-.0223-.647-.1065-.14398.0458-.31198.1598-.327.343-.02301.3365.33499.3749.578.3823.25101.0075.76199 0 .76199 0 .45599 0 .965.0916 1.27002.4048.18298.1831.30499.4356.30499.7562 0 .3365-.14502.5964-.327.7796zm-1.51502-1.391h-.69998c-.259.0842-.487.3132-.487.6114 0 .1757.06097.3057.159.4047.25198.2524.69299.2673 1.02798.2673.327 0 .80701-.0298 1.05002-.2748.09998-.099.15997-.229.15997-.3972 0-.6572-.72198-.6114-1.20999-.6114zm-.10699-3.3986c-.52499 0-.875.3589-.875.8478s.328.8627.875.8627c.526 0 .87601-.3738.87601-.8627s-.327-.8478-.87601-.8478zm5.82901 1.719h-2.72501c0 .3504.138.7328.37399.9692.17502.1758.41.2759.70801.2759.30399 0 .55499-.0842.715-.2524.10599-.1066.17499-.2141.228-.4207h.63101c-.05301.3823-.28101.7412-.59302.9553-.27399.1832-.616.2897-.98099.2897-.54102 0-.98199-.229-1.27899-.5804-.32001-.3739-.48001-.8862-.48001-1.4358 0-.4654.08398-.8786.297-1.2376.27399-.4654.785-.8094 1.45401-.8094.495 0 .88998.1906 1.172.4963.31198.344.49399.8403.487 1.3601zm-.89001-1.3452c-.16-.213-.41901-.3514-.76099-.3514-.70001 0-1.043.573-1.05801 1.1385h2.05499c0-.2897-.08398-.5804-.23599-.7871zm6.53399 3.1164c-.34198 0-.55499-.2588-.55499-.5879h-.01599c-.22101.3898-.70001.6337-1.241.6337-.883 0-1.32401-.5954-1.32401-1.1907 0-.4963.32001-1.146 1.37-1.2067l1.172-.0693v-.2822c0-.1917-.02301-.4282-.198-.589-.129-.1214-.319-.1981-.63101-.1981-.35098 0-.57098.0991-.70099.229-.121.1225-.19.2748-.19.4665h-.63098c.00699-.3515.13699-.6039.33398-.8105.259-.2748.715-.4122 1.18799-.4122.746 0 1.17203.3206 1.35501.7413.07501.1757.11301.3738.11301.5954v1.8713c0 .2066.08398.2598.21399.2598.069 0 .16699-.0223.16699-.0223v.4803c-.13699.0693-.26599.0916-.42599.0916zm-.59399-1.9171-1.035.0618c-.388.0223-.845.2055-.845.6944 0 .344.21301.6646.76199.6646.29602 0 .58603-.099.79102-.3131.229-.2365.327-.5571.327-.8787v-.229zm4.513 1.8639v-2.4518c0-.5805-.237-.9245-.845-.9245-.37399 0-.67099.245-.83701.5965-.13.2822-.13699.6869-.13699.9851v1.7947h-.64801v-3.8651h.56403l.05298.5804c.19702-.4431.73001-.6795 1.164-.6795.875 0 1.332.5272 1.332 1.4208v2.5434zm4.52301 0-.04501-.5038c-.22101.3898-.716.6028-1.14999.6028-.47101 0-.836-.1597-1.08701-.4196-.36499-.3738-.556-.9628-.556-1.604 0-.6646.198-1.2759.58701-1.6498.25-.2375.608-.3898 1.056-.3898.42001 0 .914.1992 1.12.5496v-2.1003h.646v5.5149h-.57098zm-.46301-3.1622c-.15298-.1374-.34299-.2524-.62399-.2524-.86099 0-1.08899.7721-1.08899 1.4825s.228 1.4815 1.08899 1.4815c.28101 0 .47101-.1139.62399-.2524.319-.2822.42599-.7476.42599-1.2291 0-.4814-.10699-.9479-.42599-1.2301zm8.87799 3.1622v-2.4593c0-.5421-.17499-.917-.784-.917-.24399 0-.43399.1001-.586.2599-.258.2673-.327.6571-.327 1.0619v2.0545h-.647v-2.4593c0-.5421-.16-.917-.776-.917-.27399 0-.495.1374-.655.344-.19.245-.258.6572-.258.9777v2.0545h-.647v-3.8651h.56302l.06097.5507c.20502-.4356.647-.6497 1.08002-.6497.57098 0 .98199.2599 1.14899.7338.20602-.4814.70001-.7338 1.18802-.7338.875 0 1.28598.5655 1.28598 1.4208v2.5433zm4.578-.3515c-.28098.2758-.677.4505-1.164.4505s-.883-.1747-1.164-.4505c-.41898-.4122-.54898-.9692-.54898-1.5806 0-.6113.13-1.1694.54898-1.5816.28101-.2748.677-.4505 1.164-.4505s.88303.1757 1.164.4505c.42001.4122.54901.9703.54901 1.5816 0 .6114-.129 1.1684-.54901 1.5806zm-.47098-2.7798c-.16-.1608-.388-.2748-.69302-.2748-.30399 0-.53198.114-.69299.2748-.27298.2822-.35699.7487-.35699 1.1992 0 .4506.08401.916.35699 1.1993.16101.1598.38901.2748.69299.2748.30502 0 .53302-.115.69302-.2748.27399-.2833.358-.7487.358-1.1993 0-.4505-.08401-.917-.358-1.1992zm4.98999 2.8107c-.25101.2599-.616.4196-1.08801.4196-.43399 0-.92798-.213-1.14899-.6028l-.04599.5038h-.57101v-5.5149h.64801v2.1003c.20398-.3504.69901-.5496 1.11798-.5496.44901 0 .80701.1523 1.05801.3898.388.3738.586.9852.586 1.6498 0 .6412-.19 1.2302-.556 1.604zm-1.19501-3.094c-.28101 0-.47101.115-.62399.2524-.319.2822-.42599.7487-.42599 1.2301 0 .4815.10699.9469.42599 1.2291.15298.1385.34299.2524.62399.2524.86099 0 1.08902-.7711 1.08902-1.4815s-.22803-1.4825-1.08902-1.4825zm2.82102-1.3367v-.7636h.75299v.7636zm.04498 4.7513v-3.8651h.66202v3.8651zm2.862.0458c-.56299 0-.80698-.3355-.80698-.9469v-4.6138h.64697v4.5755c0 .2599.08401.3973.35001.3973.21301 0 .26599-.0075.26599-.0075v.5496s-.14398.0458-.45599.0458zm1.384-4.7971v-.7636h.75302v.7636zm.04602 4.7513v-3.8651h.66199v3.8651zm3.301.0532c-.83002 0-1.05801-.5261-1.05801-1.0459v-2.3143h-.746v-.5581h.746v-.9852l.646-.1523v1.1375h1.142v.5581h-1.142v2.2377c0 .3749.16.5272.51801.5272.27402 0 .66202-.0682.66202-.0682v.557c-.17502.0458-.41101.1065-.76801.1065zm2.974.7413c-.18201.4963-.46402.8254-1.043.8254-.319 0-.53201-.0617-.586-.0767v-.5655s.20599.0618.457.0618c.27399 0 .47198-.1001.578-.3898l.24399-.6497-1.53799-3.8651h.73199l1.133 3.0482 1.08099-3.0482h.677l-1.73499 4.6596zm-149.09702-.3453c-6.702 0-10.021-3.845-10.021-10.2516v-16.9165h-6.06599v-6.597h6.06599v-8.45952l7.979-1.98511v10.44463h8.36301v6.597h-8.36301v16.2122c0 2.5616 1.14799 3.6519 3.703 3.6519 1.65799 0 3-.0652 5.17-.3208v6.7274c-2.233.5765-4.468.8974-6.83101.8974zm11.92801-38.37961v-8.26649h8.55299v8.26649zm.25501 37.93091v-33.3164h8.10599v33.3164zm41.01599.5113c-3.44901 0-5.362-2.1781-5.619-4.6771-1.53099 2.692-5.362 4.998-10.08699 4.998-7.914 0-12-4.998-12-10.4421 0-6.344 4.91499-9.9959 11.23599-10.4446l9.767-.7043v-2.0503c0-3.1407-1.086-5.2537-5.61899-5.2537-3.701 0-5.87401 1.6643-6.06401 4.7398h-7.724c.44701-7.497 6.383-10.8281 13.78801-10.8281 5.681 0 10.534 1.7947 12.44899 6.7926.82901 2.113.957 4.4841.957 6.7275v12.3645c0 1.5391.51201 2.1156 1.853 2.1156.509 0 1.02101-.1278 1.02101-.1278v5.8953c-1.341.5765-2.043.8947-3.95801.8947zm-6.703-15.3122-8.42599.6417c-2.427.1904-4.78999 1.6643-4.78999 4.3563 0 2.5616 2.235 4.1633 4.72499 4.1633 4.98 0 8.491-2.6895 8.491-7.6222v-1.5391zm-64.752-.5113c-.065.4487-.192.767-.257 1.153h-22.981c0 2.0504.063 3.9729 1.277 5.7649 1.276 1.8599 3.446 2.7547 5.554 2.7547 2.87199 0 5.42599-1.2156 6.50999-3.8424h7.662c-.767 2.4989-1.98 4.5493-3.95799 6.4065-2.49001 2.3712-6.129 3.9077-10.59601 3.9077-4.086 0-7.535-1.6017-9.95999-4.0355-2.68201-2.692-4.08601-7.0483-4.08601-10.7002 0-1.4087.12801-2.8825.383-4.2937.766-4.4215 2.744-8.4569 6.001-11.5324 2.49-2.3712 6.575-4.4215 11.3-4.4215 5.554 0 9.957 2.9477 11.873 7.0483 1.341 2.9477 1.66 4.7423 1.66 7.69 0 1.3434-.127 2.6894-.382 4.1006zm-8.875-10.4446c-1.084-1.153-2.67999-1.9225-4.91499-1.9225-2.043 0-4.021.96-5.235 1.9851-1.72301 1.4738-2.744 3.4616-3.384 5.7023h15.194c0-.3182.063-.5765.063-.8947 0-1.7321-.51001-3.5242-1.72301-4.8702z" fill="#3ad4a7"/>
</svg>