<?xml version="1.0" encoding="UTF-8"?>
<svg id="Layer_1" xmlns="http://www.w3.org/2000/svg" version="1.1" viewBox="0 0 309 259">
  <!-- Generator: Adobe Illustrator 29.6.0, SVG Export Plug-In . SVG Version: 2.1.1 Build 207)  -->
  <defs>
    <style>
      .st0 {
        fill: #fff;
        fill-rule: evenodd;
      }
    </style>
  </defs>
  <g id="Logo_x2F_Blanc-2-lignes">
    <g id="Group">
      <path id="Fill-34" class="st0" d="M1.5,146v6.2c18.6-4.7,38.2-15.9,48.8-25.9,7.3-6.9,13.5-14.7,18.4-24,0,0,.3-.5.4-.6,4.4-8.5,7.9-18.4,10.3-30,6.6-32.1-3.2-64.6-5.6-68.6C72-.2,68.4,0,65.8,0H1.5v73.7h48.2c.2,0,1.2,0,1.4,0,1.6.3,2.8,1.4,3.1,2.9,0,.4.2.9,0,1.4-.4,14.4-7.8,43.4-49,62l-3.8,1.6v4.3h0Z"/>
      <polygon id="Fill-35" class="st0" points="1.5 187.5 17.7 187.5 17.7 190.1 4.7 190.1 4.7 197.6 16.8 197.6 16.8 200.2 4.7 200.2 4.7 208.3 17.8 208.3 17.8 210.9 1.5 210.9 1.5 187.5"/>
      <polygon id="Fill-36" class="st0" points="27.5 190.1 19.7 190.1 19.7 187.5 38.4 187.5 38.4 190.1 30.6 190.1 30.6 210.9 27.5 210.9 27.5 190.1"/>
      <path id="Fill-37" class="st0" d="M42.7,201.2h7.9l-3.9-10.9h0l-4,10.9ZM45,187.5h3.4l9.1,23.4h-3.4l-2.6-7.1h-9.9l-2.6,7.1h-3.2l9.1-23.4h0Z"/>
      <polygon id="Fill-38" class="st0" points="62.9 190.1 55 190.1 55 187.5 73.8 187.5 73.8 190.1 66 190.1 66 210.9 62.9 210.9 62.9 190.1"/>
      <path id="Fill-39" class="st0" d="M89.9,208.3h5.2c2.1,0,7.9-.6,7.9-9.2s-2.1-9-7.8-9h-5.2v18.2h0ZM86.8,187.5h8c7.2,0,11.2,3.6,11.2,11.2s-3.4,12.3-11.2,12.3h-8v-23.4h0Z"/>
      <polygon id="Fill-40" class="st0" points="110.5 187.5 126.6 187.5 126.6 190.1 113.6 190.1 113.6 197.6 125.8 197.6 125.8 200.2 113.6 200.2 113.6 208.3 126.7 208.3 126.7 210.9 110.5 210.9 110.5 187.5"/>
      <polygon id="Fill-41" class="st0" points="140.9 187.5 156.3 187.5 156.3 190.1 144 190.1 144 197.6 154.8 197.6 154.8 200.2 144 200.2 144 210.9 140.9 210.9 140.9 187.5"/>
      <path id="Fill-42" class="st0" d="M170,198.3c2.9,0,5.4-.8,5.4-4.2s-1.2-4-4.2-4h-7.7v8.2h6.5ZM160.4,187.5h11c4.4,0,7.1,2.4,7.1,6.1s-1.2,5.1-4.1,5.9h0c2.7.6,3.3,2.6,3.5,4.9.2,2.3,0,4.9,1.4,6.5h-3.5c-.9-1-.4-3.5-.9-5.8-.3-2.3-.9-4.2-3.9-4.2h-7.6v10h-3.1v-23.4h.1Z"/>
      <polygon id="Fill-43" class="st0" points="183.6 210.9 186.7 210.9 186.7 187.5 183.6 187.5 183.6 210.9"/>
      <path id="Fill-44" class="st0" d="M195.7,208.3h7.8c2.7,0,4.4-1.6,4.4-4.2s-2.5-3.9-5.1-3.9h-7.1v8.1h0ZM195.7,197.6h6.2c3.5,0,5-1.3,5-3.7s-2.3-3.7-5-3.7h-6.2v7.4ZM192.6,187.5h8.5c2.1,0,4.8,0,6.2.9,1.5.9,2.8,2.6,2.8,4.9s-1.3,4.4-3.5,5.3h0c2.9.6,4.5,2.8,4.5,5.7s-2.5,6.7-7.1,6.7h-11.3v-23.4h0Z"/>
      <path id="Fill-45" class="st0" d="M225.6,208.9c5.7,0,8.1-4.9,8.1-9.7s-2.4-9.6-8.1-9.6-8.1,4.9-8.1,9.6,2.4,9.7,8.1,9.7M225.6,186.9c7.4,0,11.2,5.9,11.2,12.3s-3.8,12.3-11.2,12.3-11.2-5.9-11.2-12.3,3.8-12.3,11.2-12.3"/>
      <path id="Fill-46" class="st0" d="M259.9,202.5c0,5.9-3.4,9-9.2,9s-9.6-2.8-9.6-9v-15h3.1v15c0,4.1,2.4,6.4,6.5,6.4s6.1-2.3,6.1-6.4v-15h3.1v15Z"/>
      <path id="Fill-47" class="st0" d="M275.2,198.3c2.9,0,5.4-.8,5.4-4.2s-1.3-4-4.2-4h-7.7v8.2h6.5ZM265.6,187.5h11c4.4,0,7.1,2.4,7.1,6.1s-1.2,5.1-4.1,5.9h0c2.7.6,3.3,2.6,3.5,4.9.2,2.3,0,4.9,1.4,6.5h-3.5c-.9-1-.4-3.5-.9-5.8-.3-2.3-.9-4.2-3.9-4.2h-7.6v10h-3.1v-23.4h.1Z"/>
      <path id="Fill-48" class="st0" d="M306.2,208c-1.8,2.5-4.8,3.5-7.5,3.5-7,0-11.1-5.7-11.1-11.8s3.7-12.7,11.1-12.7,9.2,2.3,10.1,7.8h-3.1c-.6-3.6-3.5-5.1-6.9-5.1-5.7,0-8,4.9-8,9.9s2.8,9.4,8,9.4,7.7-3.4,7.5-7.6h-7.5v-2.6h10.3v12.3h-2l-.8-2.9v-.2Z"/>
      <path id="Fill-49" class="st0" d="M15.1,241.2c-.4-3.3-2.6-4.8-5.8-4.8s-5.2,1-5.2,4,3.7,3.3,7.5,4.2c3.7.9,7.5,2.2,7.5,6.8s-4.9,7-9.1,7S.2,255.8.2,250.1h2.9c0,3.9,3.3,5.6,6.8,5.6s5.9-.9,5.9-4.3-3.7-3.8-7.5-4.6c-3.7-.8-7.5-1.9-7.5-6.2s4.2-6.9,8.5-6.9,8.4,2.3,8.6,7.4h-3,.2Z"/>
      <polygon id="Fill-50" class="st0" points="27.4 237 19.6 237 19.6 234.4 38.3 234.4 38.3 237 30.5 237 30.5 257.8 27.4 257.8 27.4 237"/>
      <path id="Fill-51" class="st0" d="M42.6,248.1h7.9l-3.9-10.9h0l-4,10.9ZM44.9,234.4h3.4l9.1,23.4h-3.4l-2.6-7.1h-9.9l-2.6,7.1h-3.2l9.1-23.4h0Z"/>
      <path id="Fill-52" class="st0" d="M64.5,248.1h7.9l-3.9-10.9h0l-4,10.9ZM66.8,234.4h3.4l9.2,23.4h-3.4l-2.6-7.1h-9.9l-2.6,7.1h-3.2l9.1-23.4Z"/>
      <polygon id="Fill-53" class="st0" points="84.6 237 76.8 237 76.8 234.4 95.6 234.4 95.6 237 87.8 237 87.8 257.8 84.6 257.8 84.6 237"/>
      <polygon id="Fill-54" class="st0" points="108.5 234.4 123.9 234.4 123.9 237 111.7 237 111.7 244.4 122.4 244.4 122.4 247.1 111.7 247.1 111.7 257.8 108.5 257.8 108.5 234.4"/>
      <path id="Fill-55" class="st0" d="M137.6,245.2c2.9,0,5.4-.8,5.4-4.2s-1.2-4-4.2-4h-7.7v8.2h6.5ZM128,234.4h11c4.4,0,7.1,2.4,7.1,6.1s-1.2,5.1-4.1,5.9h0c2.7.6,3.3,2.6,3.5,4.9.2,2.3,0,4.9,1.4,6.5h-3.5c-.9-1-.4-3.5-.9-5.8-.3-2.3-.9-4.2-3.9-4.2h-7.6v10h-3.1v-23.4h0Z"/>
      <polygon id="Fill-56" class="st0" points="151.1 234.4 167.3 234.4 167.3 237 154.2 237 154.2 244.4 166.4 244.4 166.4 247.1 154.2 247.1 154.2 255.2 167.4 255.2 167.4 257.8 151.1 257.8 151.1 234.4"/>
      <polygon id="Fill-57" class="st0" points="171.9 257.8 175 257.8 175 234.4 171.9 234.4 171.9 257.8"/>
      <path id="Fill-58" class="st0" d="M184,255.2h7.8c2.7,0,4.4-1.7,4.4-4.2s-2.5-3.9-5.1-3.9h-7.1v8.1h0ZM184,244.4h6.2c3.5,0,5-1.3,5-3.7s-2.3-3.7-5-3.7h-6.2v7.4ZM180.9,234.4h8.5c2.1,0,4.8,0,6.2.9,1.5.9,2.8,2.6,2.8,4.9s-1.3,4.4-3.5,5.3h0c2.9.7,4.5,2.8,4.5,5.7s-2.5,6.7-7.1,6.7h-11.3v-23.4h0Z"/>
      <path id="Fill-59" class="st0" d="M222.7,249.3c0,5.9-3.4,9-9.2,9s-9.6-2.8-9.6-9v-15h3.1v15c0,4.1,2.4,6.4,6.5,6.4s6.1-2.3,6.1-6.4v-15h3.1v15h0Z"/>
      <path id="Fill-60" class="st0" d="M237.9,245.2c2.9,0,5.4-.8,5.4-4.2s-1.2-4-4.2-4h-7.7v8.2h6.5ZM228.3,234.4h11c4.4,0,7.1,2.4,7.1,6.1s-1.2,5.1-4.1,5.9h0c2.7.6,3.3,2.6,3.5,4.9.2,2.3,0,4.9,1.4,6.5h-3.5c-.9-1-.4-3.5-.9-5.8-.3-2.3-.9-4.2-3.9-4.2h-7.6v10h-3.1v-23.4h.1Z"/>
      <path id="Fill-61" class="st0" d="M268.9,254.9c-1.8,2.5-4.8,3.5-7.5,3.5-7,0-11.2-5.7-11.2-11.8s3.7-12.7,11.2-12.7,9.2,2.3,10.1,7.8h-3.1c-.6-3.6-3.5-5.2-6.9-5.2-5.7,0-8,4.9-8,10s2.8,9.4,8,9.4,7.7-3.4,7.5-7.7h-7.5v-2.6h10.3v12.3h-2l-.8-2.9h-.1Z"/>
    </g>
  </g>
</svg>