<?xml version="1.0" encoding="UTF-8"?>
<svg id="Layer_1" xmlns="http://www.w3.org/2000/svg" xmlns:xlink="http://www.w3.org/1999/xlink" version="1.1" viewBox="0 0 746 263.9">
  <!-- Generator: Adobe Illustrator 29.5.1, SVG Export Plug-In . SVG Version: 2.1.0 Build 141)  -->
  <defs>
    <style>
      .st0 {
        mask: url(#mask);
      }

      .st1 {
        fill: #fff;
      }

      .st1, .st2 {
        fill-rule: evenodd;
      }
    </style>
    <mask id="mask" x="0" y="0" width="746" height="263.9" maskUnits="userSpaceOnUse">
      <g id="b">
        <path id="a" class="st1" d="M0,263.9h746V0H0v263.9Z"/>
      </g>
    </mask>
  </defs>
  <path class="st2" d="M129.1,169h6.2l-4.1,5.2h-5.2l3-5.2ZM560.7,219.9h6.2l-4.1,5.2h-5.2l3-5.2ZM97,91.6v5.3H22.9v1c.6,18.1,11.4,29.6,26.6,29.6h1c13.4,0,21.5-8.7,24.4-19.5h23.1c-4.7,22.1-22.1,37.4-48.9,37.2-30.9-.2-49.1-21.3-49.1-53s19.7-53.4,48.9-53.4,48.1,20.1,48.1,52.8h0ZM73.9,81c-1.4-13.8-10.2-25.2-24.8-25.2h-1.4c-14.4,0-22.7,11.8-24.2,25.2h50.3ZM113.9,13.4c0-7.5,6.3-13.4,14-13.4s13.4,5.9,13.4,13.4-5.9,13.6-13.4,13.6-14-6.1-14-13.6ZM116.3,142.7h22.7V41.2h-22.7s0,101.5,0,101.5ZM198.4,93.2l-12,11.4v38.2h-22.7V1.6h22.7v76.9l39-37.4h27.6l-39.4,37.2,3.7,4.9,40.4,59.5h-26.8l-32.5-49.5Z"/>
  <path class="st2" d="M355.7,91.6c0,32.5-20.7,53.6-50.8,53.6s-50.6-21.1-50.6-53.6,20.3-52.8,50.6-52.8,50.8,20.3,50.8,52.8M332,91.6c0-19.1-8.1-34.9-26.2-34.9h-1.8c-17.9,0-26,16.4-26,34.9s7.9,35.7,26,35.7h1.8c18.3,0,26.2-16.2,26.2-35.7M395.1,41.2v2.2c0,5.1-.8,7.3-2.8,12.6l3,.8c4.5-10.2,16.2-18.1,33.3-18.1s34.9,7.5,34.9,34.5v69.4h-22.7v-65.6c0-14.2-9.1-19.7-21.5-19.7h-.6c-12.8,0-24,7.9-24,22.1v63.1h-22.7V41.2h23.1,0ZM140.3,205.5v4.8h-23.7v-33.7h23.4v4.8h-17.7v9.5h16.1v4.6h-16.1v10.1h17.9ZM159.9,210.9c-9.6,0-15.5-6.5-15.5-17.4s6-17.5,15.6-17.5,13.5,5,14.6,12.4h-5.8c-.9-4.7-3.9-7.6-8.6-7.6h-.5c-5.9,0-9.3,4.9-9.3,12.7s3.4,12.7,9.3,12.7h.5c5.2,0,8-3.7,8.5-7.3h5.8c-.6,6-5,12.1-14.5,12.1M211,193.4c0,10.4-5.9,17.5-16,17.5s-15.9-7.1-15.9-17.5,5.9-17.5,15.9-17.5,16,7,16,17.4M205,193.5c0-7.7-3.5-12.7-9.7-12.7h-.5c-6.2,0-9.8,5-9.8,12.7s3.5,12.7,9.7,12.7h.5c6.2,0,9.7-5,9.7-12.7M240.9,205.6v4.8h-23.5v-33.7h5.7v28.9h17.8ZM269.5,205.5v4.8h-23.7v-33.7h23.4v4.8h-17.7v9.5h16.1v4.6h-16.1v10.1h17.9ZM303.9,176.6c7.3,0,12,3.3,12,10.2s-5.1,10.4-12,10.4h-8.2v13h-5.7v-33.7h13.9,0ZM309.8,186.9c0-3.9-2-5.6-5.8-5.6h-8.4v11.4h8.4c3.8,0,5.8-1.9,5.8-5.7h0ZM335.9,176.6c6.6,0,11.8,2.9,11.8,9.3s-3.2,7.8-7,8.1v.7c4.6.2,6.1,2.5,6.1,7s.7,6.4,2,8.4v.2h-6.3c-.8-1.8-1.3-4-1.3-7.4s-1.8-6.1-5.8-6.1h-8.5v13.5h-5.7v-33.7h14.8ZM341.6,186.7c0-3.9-2.3-5.4-6.1-5.4h-8.8v11h8.8c3.8,0,6.1-1.7,6.1-5.6ZM384.9,193.4c0,10.4-5.9,17.5-16,17.5s-15.9-7.1-15.9-17.5,5.9-17.5,15.9-17.5,16,7,16,17.4M378.9,193.5c0-7.7-3.5-12.7-9.7-12.7h-.5c-6.2,0-9.8,5-9.8,12.7s3.5,12.7,9.7,12.7h.5c6.2,0,9.7-5,9.7-12.7M397,181.4v9.5h15.8v4.7h-15.8v14.8h-5.7v-33.7h23.2v4.8h-17.5ZM443.2,205.5v4.8h-23.7v-33.7h23.4v4.8h-17.7v9.5h16.1v4.6h-16.1v10.1h17.9ZM453,198.1c0,5.7,3.9,8.2,8.3,8.2s7.4-1.9,7.4-5.1-3.5-4.6-6.3-5.2l-4.6-1.1c-6-1.3-9.7-4.4-9.7-9.2s5.7-9.7,12.8-9.7,13.3,4.7,13.9,11.2h-6.1c-.3-3.8-3.5-6.6-7.8-6.6s-6.7,1.5-6.7,4.6,2.5,4.2,5.8,4.9l5.1,1.1c6.2,1.3,9.8,4.3,9.8,9.7s-6.3,10.1-13.5,10c-7.4,0-14.1-3.5-14.3-12.8h6.1,0ZM484.8,198.1c0,5.7,3.9,8.2,8.3,8.2s7.4-1.9,7.4-5.1-3.5-4.6-6.3-5.2l-4.6-1.1c-6-1.3-9.7-4.4-9.7-9.2s5.7-9.7,12.8-9.7,13.3,4.7,13.9,11.2h-6.1c-.3-3.8-3.5-6.6-7.8-6.6s-6.7,1.5-6.7,4.6,2.5,4.2,5.8,4.9l5.1,1.1c6.2,1.3,9.8,4.3,9.8,9.7s-6.3,10.1-13.5,10c-7.4,0-14.1-3.5-14.3-12.8h6.1,0Z"/>
  <g class="st0">
    <path class="st2" d="M512.7,210.3h5.7v-33.7h-5.7v33.7ZM556.8,193.4c0,10.4-5.9,17.5-16,17.5s-15.9-7.1-15.9-17.5,5.9-17.5,15.9-17.5,16,7,16,17.4M550.8,193.5c0-7.7-3.5-12.7-9.7-12.7h-.5c-6.2,0-9.8,5-9.8,12.7s3.5,12.7,9.7,12.7h.5c6.2,0,9.7-5,9.7-12.7M569.2,176.6l12.3,18.6c1.9,2.9,2.8,4.5,4.1,7.6l.7-.2c-.4-1.8-.6-4.1-.6-5.9v-20.2s5.6,0,5.6,0v33.7h-5.8l-13-19.8c-1.8-2.8-2.6-4.5-3.5-6.8l-.7.2c.3,1.7.7,4.2.7,6.7v19.8h-5.6v-33.7h6ZM605.3,176.6l12.3,18.6c1.9,2.9,2.8,4.5,4.1,7.6l.7-.2c-.4-1.8-.6-4.1-.6-5.9v-20.2s5.6,0,5.6,0v33.7h-5.8l-13-19.8c-1.8-2.8-2.6-4.5-3.5-6.8l-.7.2c.3,1.7.7,4.2.7,6.7v19.8h-5.6v-33.7h6,0ZM659.2,205.5v4.8h-23.7v-33.7h23.4v4.8h-17.7v9.5h16.1v4.6h-16.1v10.1h17.9ZM688.9,205.6v4.8h-23.5v-33.7h5.7v28.9h17.8ZM717.4,205.6v4.8h-23.5v-33.7h5.7v28.9h17.8ZM746,205.5v4.8h-23.7v-33.7h23.4v4.8h-17.7v9.5h16.1v4.6h-16.1v10.1h17.9ZM140.3,256.2v4.8h-23.7v-33.7h23.4v4.8h-17.7v9.5h16.1v4.6h-16.1v10.1h17.9ZM152.6,227.2l12.3,18.6c1.9,2.9,2.8,4.5,4.1,7.7l.7-.2c-.4-1.8-.6-4.1-.6-5.9v-20.2c0,0,5.6,0,5.6,0v33.7h-5.8l-13-19.8c-1.8-2.8-2.6-4.5-3.5-6.8l-.7.2c.3,1.7.7,4.2.7,6.7v19.8h-5.6v-33.7h6,0ZM216.1,252h-13.6l-3.2,8.9h-5.9l12.2-33.7h7l13.1,33.7h-6l-3.4-8.9h0ZM214.6,247.6l-4-10.4c-.6-1.6-1-2.9-1.3-4.6h-.8c-.2,1.6-.6,2.9-1.2,4.6l-3.6,10.4h10.8,0ZM245.2,227.2c6.6,0,11.8,2.9,11.8,9.3s-3.2,7.8-7,8.1v.7c4.6.2,6.1,2.5,6.1,7s.7,6.4,2,8.4v.2h-6.3c-.8-1.8-1.3-4-1.3-7.4s-1.8-6.1-5.8-6.1h-8.5v13.5h-5.7v-33.7h14.8,0ZM250.9,237.3c0-3.9-2.3-5.4-6.1-5.4h-8.8v11h8.8c3.8,0,6.1-1.7,6.1-5.6ZM288.7,232h-10.9v28.9h-5.7v-28.9h-11v-4.8h27.7v4.8ZM297.4,248.7c0,5.7,3.9,8.2,8.3,8.2s7.4-1.9,7.4-5.1-3.5-4.6-6.3-5.2l-4.6-1.1c-6-1.3-9.7-4.4-9.7-9.2s5.7-9.7,12.8-9.7,13.3,4.7,13.9,11.2h-6.1c-.3-3.8-3.5-6.6-7.8-6.6s-6.7,1.5-6.7,4.6,2.5,4.2,5.8,4.9l5.1,1.1c6.2,1.3,9.8,4.3,9.8,9.7s-6.3,10.1-13.5,10c-7.4,0-14.1-3.5-14.3-12.8h6.1,0ZM358.1,252h-13.6l-3.2,8.9h-5.9l12.2-33.7h7l13.1,33.7h-6l-3.4-8.9h0ZM356.7,247.6l-4-10.4c-.6-1.6-1-2.9-1.3-4.6h-.8c-.2,1.6-.6,2.9-1.2,4.6l-3.6,10.4h10.8ZM386.3,227.2c7.3,0,12,3.3,12,10.2s-5.1,10.4-12,10.4h-8.2v13h-5.7v-33.7h13.9ZM392.3,237.6c0-3.8-2-5.6-5.8-5.6h-8.4v11.4h8.4c3.8,0,5.8-1.9,5.8-5.7ZM417.5,227.2c7.3,0,12,3.3,12,10.2s-5.1,10.4-12,10.4h-8.2v13h-5.7v-33.7h13.9,0ZM423.5,237.6c0-3.8-2-5.6-5.8-5.6h-8.4v11.4h8.4c3.8,0,5.8-1.9,5.8-5.7h0ZM458.2,256.2v4.8h-23.5v-33.7h5.7v28.9h17.8ZM463.1,260.9h5.7v-33.7h-5.7v33.7ZM503.1,256.6l4,4.3-3.2,3-4.1-4.5c-2.4,1.4-5.2,2.2-8.6,2.2-10,0-15.9-7.1-15.9-17.5s5.9-17.5,15.9-17.5,16,7,16,17.4-1.4,9.4-4.1,12.5M496.3,255.6l-7.2-7.9,3.2-2.9,6.9,7.6c1.3-2.1,1.9-5,1.9-8.3,0-7.7-3.5-12.7-9.7-12.7h-.5c-6.2,0-9.8,5-9.8,12.7s3.5,12.7,9.7,12.7h.5c1.8,0,3.4-.5,4.8-1.3M513.6,247.5v-20.3h5.8v20.4c0,5.9,2.9,9.1,7.7,9.1h.5c4.7,0,7.5-3.3,7.5-9.1v-20.4h5.7v20.3c0,8.6-4.7,14-13.6,14s-13.6-5.4-13.6-14M572.4,256.2v4.8h-23.7v-33.7h23.4v4.8h-17.7v9.5h16.1v4.6h-16.1v10.1h17.9ZM582.2,248.7c0,5.7,3.9,8.2,8.3,8.2s7.4-1.9,7.4-5.1-3.5-4.6-6.3-5.2l-4.6-1.1c-6-1.3-9.7-4.4-9.7-9.2s5.7-9.7,12.8-9.7,13.3,4.7,13.9,11.2h-6.1c-.3-3.8-3.5-6.6-7.8-6.6s-6.7,1.5-6.7,4.6,2.5,4.2,5.8,4.9l5.1,1.1c6.2,1.3,9.8,4.3,9.8,9.7s-6.3,10.1-13.5,10c-7.4,0-14.1-3.5-14.3-12.8h6.1,0Z"/>
  </g>
</svg>