<?xml version="1.0" encoding="UTF-8"?>
<svg id="Layer_1" data-name="Layer 1" xmlns="http://www.w3.org/2000/svg" viewBox="0 0 15 12">
  <defs>
    <style>
      .cls-1 {
        fill: #d15454;
      }
    </style>
  </defs>
  <path class="cls-1" d="M14.12,5.66c0,.21-.09.4-.25.56l-4.89,4.88c-.16.15-.34.23-.53.23-.21,0-.38-.07-.52-.2-.14-.14-.21-.31-.21-.51,0-.1.02-.2.06-.29.04-.09.09-.17.15-.23l3.98-3.72-10.91.02c-.21,0-.39-.06-.52-.2-.14-.14-.21-.32-.21-.54s.07-.39.21-.52c.13-.14.31-.21.52-.21l10.83.02-3.9-3.72c-.06-.06-.11-.14-.15-.23-.04-.1-.06-.19-.06-.29,0-.21.07-.37.21-.51.14-.14.31-.2.52-.2.09,0,.19.02.28.06.09.04.18.1.27.18l4.87,4.87c.16.16.25.34.25.55Z"/>
</svg>